<?xml version="1.0" encoding="UTF-8" standalone="no"?>
<!DOCTYPE svg PUBLIC "-//W3C//DTD SVG 1.1//EN" "http://www.w3.org/Graphics/SVG/1.1/DTD/svg11.dtd">
<!-- Generated by Microsoft Visio, SVG Export Oct10JE10-30.svg Page-1 -->
<svg xmlns="http://www.w3.org/2000/svg" xmlns:xlink="http://www.w3.org/1999/xlink" xmlns:ev="http://www.w3.org/2001/xml-events"
		xmlns:v="http://schemas.microsoft.com/visio/2003/SVGExtensions/" width="11.173in" height="3.99225in"
		viewBox="0 0 804.459 287.442" xml:space="preserve" color-interpolation-filters="sRGB" class="st12">
	<v:documentProperties v:langID="1033" v:metric="true" v:viewMarkup="false">
		<v:userDefs>
			<v:ud v:nameU="msvSubprocessMaster" v:prompt="" v:val="VT4(Rectangle)"/>
			<v:ud v:nameU="msvNoAutoConnect" v:val="VT0(1):26"/>
		</v:userDefs>
	</v:documentProperties>

	<style type="text/css">
	<![CDATA[
		.st1 {fill:none;stroke:none;stroke-linecap:round;stroke-linejoin:round;stroke-width:3}
		.st2 {fill:#bdedff;font-family:Arial Rounded MT Bold;font-size:7.08334em}
		.st3 {marker-start:url(#mrkr13-9);stroke:#000000;stroke-linecap:round;stroke-linejoin:round;stroke-width:3}
		.st4 {fill:#000000;fill-opacity:1;stroke:#000000;stroke-opacity:1;stroke-width:0.54347826086957}
		.st5 {stroke:#000000;stroke-linecap:round;stroke-linejoin:round;stroke-width:3}
		.st6 {fill:none;stroke:#000000;stroke-linecap:round;stroke-linejoin:round;stroke-width:3}
		.st7 {stroke:#000000;stroke-dasharray:10.5,7.5;stroke-linecap:round;stroke-linejoin:round;stroke-width:1.5}
		.st8 {marker-end:url(#mrkr13-96);stroke:#000000;stroke-linecap:round;stroke-linejoin:round;stroke-width:3}
		.st9 {fill:none;stroke:none;stroke-width:0.25}
		.st10 {fill:#000000;font-family:Calibri;font-size:2.50001em;font-weight:bold}
		.st11 {font-size:1em;font-style:italic}
		.st12 {fill:none;fill-rule:evenodd;font-size:12px;overflow:visible;stroke-linecap:square;stroke-miterlimit:3}
	]]>
	</style>

	<defs id="Markers">
		<g id="lend13">
			<path d="M 3 1 L 0 0 L 3 -1 L 3 1 " style="stroke:none"/>
		</g>
		<marker id="mrkr13-9" class="st4" v:arrowType="13" v:arrowSize="2" v:setback="5.4" refX="5.4" orient="auto"
				markerUnits="strokeWidth" overflow="visible">
			<use xlink:href="#lend13" transform="scale(1.84) "/>
		</marker>
		<marker id="mrkr13-96" class="st4" v:arrowType="13" v:arrowSize="2" v:setback="5.52" refX="-5.52" orient="auto"
				markerUnits="strokeWidth" overflow="visible">
			<use xlink:href="#lend13" transform="scale(-1.84,-1.84) "/>
		</marker>
	</defs>
	<g v:mID="0" v:index="1" v:groupContext="foregroundPage">
		<v:userDefs>
			<v:ud v:nameU="msvThemeOrder" v:val="VT0(0):26"/>
		</v:userDefs>
		<title>Page-1</title>
		<v:pageProperties v:drawingScale="0.0393701" v:pageScale="0.0393701" v:drawingUnits="24" v:shadowOffsetX="8.50394"
				v:shadowOffsetY="-8.50394"/>
		<v:layer v:name="Connector" v:index="0"/>
		<g id="shape1-1" v:mID="1" v:groupContext="shape" transform="translate(19.5,-70.8235)">
			<title>Sheet.1</title>
			<desc>ExamSIDE.com</desc>
			<v:textBlock v:margins="rect(4,4,4,4)" v:tabSpace="42.5197"/>
			<v:textRect cx="333.231" cy="243.596" width="666.47" height="87.6924"/>
			<rect x="0" y="199.75" width="666.462" height="87.6924" class="st1"/>
			<text x="16.6" y="269.1" class="st2" v:langID="16393"><v:paragraph v:horizAlign="1"/><v:tabList/>ExamSIDE.com</text>		</g>
		<g id="shape4-4" v:mID="4" v:groupContext="shape" transform="translate(327.909,359.676) rotate(180)">
			<title>Sheet.4</title>
			<path d="M16.2 287.44 L16.56 287.44 L265.89 287.44" class="st3"/>
		</g>
		<g id="shape5-10" v:mID="5" v:groupContext="shape" transform="translate(327.92,507.077) rotate(-179.889)">
			<title>Sheet.5</title>
			<path d="M16.2 287.44 L16.56 287.44 L266.46 287.44" class="st3"/>
		</g>
		<g id="shape6-15" v:mID="6" v:groupContext="shape" transform="translate(515.563,359.676) rotate(180)">
			<title>Sheet.6</title>
			<path d="M0 287.44 L189.92 287.44" class="st5"/>
		</g>
		<g id="shape7-18" v:mID="7" v:groupContext="shape" transform="translate(516.339,506.561) rotate(179.845)">
			<title>Sheet.7</title>
			<path d="M0 287.44 L189.28 287.44" class="st5"/>
		</g>
		<g id="shape9-21" v:mID="9" v:groupContext="shape" transform="translate(329.426,434.337) rotate(179.993)">
			<title>Sheet.9</title>
			<path d="M16.2 287.44 L16.56 287.44 L234.4 287.44" class="st3"/>
		</g>
		<g id="shape10-26" v:mID="10" v:groupContext="shape" transform="translate(330.142,467.391) rotate(179.85)">
			<title>Sheet.10</title>
			<path d="M16.2 287.44 L16.56 287.44 L238.62 287.44" class="st3"/>
		</g>
		<g id="shape11-31" v:mID="11" v:groupContext="shape" transform="translate(328.545,396.526) rotate(179.986)">
			<title>Sheet.11</title>
			<path d="M16.2 287.44 L16.56 287.44 L237.49 287.44" class="st3"/>
		</g>
		<g id="shape12-36" v:mID="12" v:groupContext="shape" transform="translate(769.344,72.2335) rotate(90)">
			<title>Ellipse</title>
			<v:userDefs>
				<v:ud v:nameU="visVersion" v:val="VT0(15):26"/>
			</v:userDefs>
			<path d="M0 253.78 A73.4431 33.6614 0 1 1 146.89 253.78 A73.4431 33.6614 0 1 1 0 253.78 Z" class="st6"/>
		</g>
		<g id="shape13-38" v:mID="13" v:groupContext="shape" transform="translate(315.801,72.2335) rotate(90)">
			<title>Ellipse.13</title>
			<v:userDefs>
				<v:ud v:nameU="visVersion" v:val="VT0(15):26"/>
			</v:userDefs>
			<path d="M0 253.78 A73.4431 33.6614 0 1 1 146.89 253.78 A73.4431 33.6614 0 1 1 0 253.78 Z" class="st6"/>
		</g>
		<g id="shape14-40" v:mID="14" v:groupContext="shape" transform="translate(485.705,466.966) rotate(179.845)">
			<title>Sheet.14</title>
			<path d="M0 287.44 L189.28 287.44" class="st5"/>
		</g>
		<g id="shape15-43" v:mID="15" v:groupContext="shape" transform="translate(482.678,433.575) rotate(179.845)">
			<title>Sheet.15</title>
			<path d="M0 287.44 L189.28 287.44" class="st5"/>
		</g>
		<g id="shape16-46" v:mID="16" v:groupContext="shape" transform="translate(487.104,396.257) rotate(179.845)">
			<title>Sheet.16</title>
			<path d="M0 287.44 L189.28 287.44" class="st5"/>
		</g>
		<g id="shape17-49" v:mID="17" v:groupContext="shape" transform="translate(713.988,345.502) rotate(180)">
			<title>Sheet.17</title>
			<path d="M0 287.44 L385.51 287.44" class="st7"/>
		</g>
		<g id="shape18-52" v:mID="18" v:groupContext="shape" transform="translate(714.048,364.46) rotate(180)">
			<title>Sheet.18</title>
			<path d="M0 287.44 L385.51 287.44" class="st7"/>
		</g>
		<g id="shape19-55" v:mID="19" v:groupContext="shape" transform="translate(713.988,325.03) rotate(180)">
			<title>Sheet.19</title>
			<path d="M0 287.44 L385.51 287.44" class="st7"/>
		</g>
		<g id="shape20-58" v:mID="20" v:groupContext="shape" transform="translate(715.098,306.192) rotate(180)">
			<title>Sheet.20</title>
			<path d="M0 287.44 L385.51 287.44" class="st7"/>
		</g>
		<g id="shape21-61" v:mID="21" v:groupContext="shape" transform="translate(714.108,383.417) rotate(180)">
			<title>Sheet.21</title>
			<path d="M0 287.44 L385.51 287.44" class="st7"/>
		</g>
		<g id="shape22-64" v:mID="22" v:groupContext="shape" transform="translate(714.168,401.325) rotate(180)">
			<title>Sheet.22</title>
			<path d="M0 287.44 L385.51 287.44" class="st7"/>
		</g>
		<g id="shape23-67" v:mID="23" v:groupContext="shape" transform="translate(714.228,419.233) rotate(180)">
			<title>Sheet.23</title>
			<path d="M0 287.44 L385.51 287.44" class="st7"/>
		</g>
		<g id="shape24-70" v:mID="24" v:groupContext="shape" transform="translate(713.238,438.19) rotate(180)">
			<title>Sheet.24</title>
			<path d="M0 287.44 L385.51 287.44" class="st7"/>
		</g>
		<g id="shape25-73" v:mID="25" v:groupContext="shape" transform="translate(713.297,457.148) rotate(180)">
			<title>Sheet.25</title>
			<path d="M0 287.44 L385.51 287.44" class="st7"/>
		</g>
		<g id="shape26-76" v:mID="26" v:groupContext="shape" transform="translate(714.407,478.205) rotate(180)">
			<title>Sheet.26</title>
			<path d="M0 287.44 L385.51 287.44" class="st7"/>
		</g>
		<g id="shape27-79" v:mID="27" v:groupContext="shape" transform="translate(714.467,497.162) rotate(180)">
			<title>Sheet.27</title>
			<path d="M0 287.44 L385.51 287.44" class="st7"/>
		</g>
		<g id="shape28-82" v:mID="28" v:groupContext="shape" transform="translate(713.477,518.22) rotate(180)">
			<title>Sheet.28</title>
			<path d="M0 287.44 L385.51 287.44" class="st7"/>
		</g>
		<g id="shape29-85" v:mID="29" v:groupContext="shape" transform="translate(713.537,538.227) rotate(180)">
			<title>Sheet.29</title>
			<path d="M0 287.44 L385.51 287.44" class="st7"/>
		</g>
		<g id="shape30-88" v:mID="30" v:groupContext="shape" transform="translate(714.646,556.135) rotate(180)">
			<title>Sheet.30</title>
			<path d="M0 287.44 L385.51 287.44" class="st7"/>
		</g>
		<g id="shape32-91" v:mID="32" v:groupContext="shape" transform="translate(549.224,-137.566)">
			<title>Sheet.32</title>
			<path d="M0 287.44 L46.96 287.44" class="st8"/>
		</g>
		<g id="shape33-97" v:mID="33" v:groupContext="shape" transform="translate(284.814,131.79) rotate(-90)">
			<title>Sheet.33</title>
			<path d="M0 287.44 L7.56 287.44" class="st8"/>
		</g>
		<g id="shape34-102" v:mID="34" v:groupContext="shape" transform="translate(529.736,-132.453)">
			<title>Sheet.34</title>
			<desc>Decreasing μ</desc>
			<v:textBlock v:margins="rect(4,4,4,4)" v:tabSpace="42.5197"/>
			<v:textRect cx="128.236" cy="251.734" width="256.48" height="71.4172"/>
			<rect x="0" y="216.025" width="256.472" height="71.4172" class="st9"/>
			<text x="48.14" y="260.73" class="st10" v:langID="16393"><v:paragraph v:horizAlign="1"/><v:tabList/>Decreasing<tspan
						class="st11"> </tspan><tspan class="st11" v:langID="1032">μ</tspan></text>		</g>
		<g id="shape35-107" v:mID="35" v:groupContext="shape" transform="translate(574.445,-106.057)">
			<title>Sheet.35</title>
			<desc>Axis</desc>
			<v:textBlock v:margins="rect(4,4,4,4)" v:tabSpace="42.5197"/>
			<v:textRect cx="69.7717" cy="251.734" width="139.55" height="71.4172"/>
			<rect x="0" y="216.025" width="139.543" height="71.4172" class="st9"/>
			<text x="44.12" y="260.73" class="st10" v:langID="16393"><v:paragraph v:horizAlign="1"/><v:tabList/>Axis</text>		</g>
	</g>
</svg>
