<?xml version="1.0" encoding="UTF-8" standalone="no"?>
<!DOCTYPE svg PUBLIC "-//W3C//DTD SVG 1.1//EN" "http://www.w3.org/Graphics/SVG/1.1/DTD/svg11.dtd">
<!-- Generated by Microsoft Visio, SVG Export 2001screeninglawsofmotion.svg Page-1 -->
<svg xmlns="http://www.w3.org/2000/svg" xmlns:xlink="http://www.w3.org/1999/xlink" xmlns:ev="http://www.w3.org/2001/xml-events"
		xmlns:v="http://schemas.microsoft.com/visio/2003/SVGExtensions/" width="5.67847in" height="3.14702in"
		viewBox="0 0 408.85 226.585" xml:space="preserve" color-interpolation-filters="sRGB" class="st9">
	<v:documentProperties v:langID="1033" v:viewMarkup="false">
		<v:userDefs>
			<v:ud v:nameU="msvNoAutoConnect" v:val="VT0(1):26"/>
		</v:userDefs>
	</v:documentProperties>

	<style type="text/css">
	<![CDATA[
		.st1 {fill:none;stroke:none;stroke-linecap:round;stroke-linejoin:round;stroke-width:0.75}
		.st2 {fill:#bdedff;font-family:Calibri;font-size:4.99999em}
		.st3 {stroke:#000000;stroke-linecap:round;stroke-linejoin:round;stroke-width:1.5}
		.st4 {fill:none;stroke:#000000;stroke-linecap:round;stroke-linejoin:round;stroke-width:1.5}
		.st5 {stroke:#000000;stroke-dasharray:1.5,3;stroke-linecap:round;stroke-linejoin:round;stroke-width:1.5}
		.st6 {fill:#ffffff;stroke:#000000;stroke-linecap:round;stroke-linejoin:round;stroke-width:1.5}
		.st7 {fill:none;stroke:none;stroke-linecap:round;stroke-linejoin:round;stroke-width:1.5}
		.st8 {fill:#000000;font-family:Calibri;font-size:1.00001em;font-weight:bold}
		.st9 {fill:none;fill-rule:evenodd;font-size:12px;overflow:visible;stroke-linecap:square;stroke-miterlimit:3}
	]]>
	</style>

	<g v:mID="0" v:index="1" v:groupContext="foregroundPage">
		<title>Page-1</title>
		<v:pageProperties v:drawingScale="1" v:pageScale="1" v:drawingUnits="19" v:shadowOffsetX="9" v:shadowOffsetY="-9"/>
		<g id="shape1-1" v:mID="1" v:groupContext="shape" transform="translate(18.375,-95.7102)">
			<title>Sheet.1</title>
			<desc>ExamSIDE.com</desc>
			<v:textBlock v:margins="rect(4,4,4,4)"/>
			<v:textRect cx="186.05" cy="216.585" width="372.11" height="20"/>
			<rect x="0" y="206.585" width="372.1" height="20" class="st1"/>
			<text x="5.58" y="234.59" class="st2" v:langID="1033"><v:paragraph v:horizAlign="1"/><v:tabList/>ExamSIDE.com</text>		</g>
		<g id="shape2-4" v:mID="2" v:groupContext="shape" transform="translate(332.675,252.085) rotate(180)">
			<title>Sheet.2</title>
			<path d="M0 226.59 L252 226.59" class="st3"/>
		</g>
		<g id="shape3-7" v:mID="3" v:groupContext="shape" transform="translate(113.217,-46.1525) rotate(-71.5651)">
			<title>Sheet.3</title>
			<path d="M0 226.59 L7.12 226.59" class="st3"/>
		</g>
		<g id="shape4-10" v:mID="4" v:groupContext="shape" transform="translate(108.717,-46.1525) rotate(-71.5651)">
			<title>Sheet.4</title>
			<path d="M0 226.59 L7.12 226.59" class="st3"/>
		</g>
		<g id="shape5-13" v:mID="5" v:groupContext="shape" transform="translate(104.217,-46.1525) rotate(-71.5651)">
			<title>Sheet.5</title>
			<path d="M0 226.59 L7.12 226.59" class="st3"/>
		</g>
		<g id="shape6-16" v:mID="6" v:groupContext="shape" transform="translate(99.7174,-46.1525) rotate(-71.5651)">
			<title>Sheet.6</title>
			<path d="M0 226.59 L7.12 226.59" class="st3"/>
		</g>
		<g id="shape7-19" v:mID="7" v:groupContext="shape" transform="translate(95.2174,-46.1525) rotate(-71.5651)">
			<title>Sheet.7</title>
			<path d="M0 226.59 L7.12 226.59" class="st3"/>
		</g>
		<g id="shape8-22" v:mID="8" v:groupContext="shape" transform="translate(90.7174,-46.1525) rotate(-71.5651)">
			<title>Sheet.8</title>
			<path d="M0 226.59 L7.12 226.59" class="st3"/>
		</g>
		<g id="shape9-25" v:mID="9" v:groupContext="shape" transform="translate(86.2174,-46.1525) rotate(-71.5651)">
			<title>Sheet.9</title>
			<path d="M0 226.59 L7.12 226.59" class="st3"/>
		</g>
		<g id="shape10-28" v:mID="10" v:groupContext="shape" transform="translate(81.7174,-46.1525) rotate(-71.5651)">
			<title>Sheet.10</title>
			<path d="M0 226.59 L7.12 226.59" class="st3"/>
		</g>
		<g id="shape11-31" v:mID="11" v:groupContext="shape" transform="translate(77.2174,-46.1525) rotate(-71.5651)">
			<title>Sheet.11</title>
			<path d="M0 226.59 L7.12 226.59" class="st3"/>
		</g>
		<g id="shape12-34" v:mID="12" v:groupContext="shape" transform="translate(72.7174,-46.1525) rotate(-71.5651)">
			<title>Sheet.12</title>
			<path d="M0 226.59 L7.12 226.59" class="st3"/>
		</g>
		<g id="shape13-37" v:mID="13" v:groupContext="shape" transform="translate(68.2174,-46.1525) rotate(-71.5651)">
			<title>Sheet.13</title>
			<path d="M0 226.59 L7.12 226.59" class="st3"/>
		</g>
		<g id="shape14-40" v:mID="14" v:groupContext="shape" transform="translate(63.7174,-46.1525) rotate(-71.5651)">
			<title>Sheet.14</title>
			<path d="M0 226.59 L7.12 226.59" class="st3"/>
		</g>
		<g id="shape15-43" v:mID="15" v:groupContext="shape" transform="translate(59.2174,-46.1525) rotate(-71.5651)">
			<title>Sheet.15</title>
			<path d="M0 226.59 L7.12 226.59" class="st3"/>
		</g>
		<g id="shape16-46" v:mID="16" v:groupContext="shape" transform="translate(54.7174,-46.1525) rotate(-71.5651)">
			<title>Sheet.16</title>
			<path d="M0 226.59 L7.12 226.59" class="st3"/>
		</g>
		<g id="shape17-49" v:mID="17" v:groupContext="shape" transform="translate(50.2174,-46.1525) rotate(-71.5651)">
			<title>Sheet.17</title>
			<path d="M0 226.59 L7.12 226.59" class="st3"/>
		</g>
		<g id="shape18-52" v:mID="18" v:groupContext="shape" transform="translate(45.7174,-46.1525) rotate(-71.5651)">
			<title>Sheet.18</title>
			<path d="M0 226.59 L7.12 226.59" class="st3"/>
		</g>
		<g id="shape19-55" v:mID="19" v:groupContext="shape" transform="translate(41.2174,-46.1525) rotate(-71.5651)">
			<title>Sheet.19</title>
			<path d="M0 226.59 L7.12 226.59" class="st3"/>
		</g>
		<g id="shape20-58" v:mID="20" v:groupContext="shape" transform="translate(36.7174,-46.1525) rotate(-71.5651)">
			<title>Sheet.20</title>
			<path d="M0 226.59 L7.12 226.59" class="st3"/>
		</g>
		<g id="shape21-61" v:mID="21" v:groupContext="shape" transform="translate(32.2174,-46.1525) rotate(-71.5651)">
			<title>Sheet.21</title>
			<path d="M0 226.59 L7.12 226.59" class="st3"/>
		</g>
		<g id="shape22-64" v:mID="22" v:groupContext="shape" transform="translate(27.7174,-46.1525) rotate(-71.5651)">
			<title>Sheet.22</title>
			<path d="M0 226.59 L7.12 226.59" class="st3"/>
		</g>
		<g id="shape23-67" v:mID="23" v:groupContext="shape" transform="translate(23.2174,-46.1525) rotate(-71.5651)">
			<title>Sheet.23</title>
			<path d="M0 226.59 L7.12 226.59" class="st3"/>
		</g>
		<g id="shape24-70" v:mID="24" v:groupContext="shape" transform="translate(18.7174,-46.1525) rotate(-71.5651)">
			<title>Sheet.24</title>
			<path d="M0 226.59 L7.12 226.59" class="st3"/>
		</g>
		<g id="shape25-73" v:mID="25" v:groupContext="shape" transform="translate(14.2174,-46.1525) rotate(-71.5651)">
			<title>Sheet.25</title>
			<path d="M0 226.59 L7.12 226.59" class="st3"/>
		</g>
		<g id="shape26-76" v:mID="26" v:groupContext="shape" transform="translate(9.71739,-46.1525) rotate(-71.5651)">
			<title>Sheet.26</title>
			<path d="M0 226.59 L7.12 226.59" class="st3"/>
		</g>
		<g id="shape27-79" v:mID="27" v:groupContext="shape" transform="translate(5.21739,-46.1525) rotate(-71.5651)">
			<title>Sheet.27</title>
			<path d="M0 226.59 L7.12 226.59" class="st3"/>
		</g>
		<g id="shape28-82" v:mID="28" v:groupContext="shape" transform="translate(0.717385,-46.1525) rotate(-71.5651)">
			<title>Sheet.28</title>
			<path d="M0 226.59 L7.12 226.59" class="st3"/>
		</g>
		<g id="shape29-85" v:mID="29" v:groupContext="shape" transform="translate(-3.78261,-46.1525) rotate(-71.5651)">
			<title>Sheet.29</title>
			<path d="M0 226.59 L7.12 226.59" class="st3"/>
		</g>
		<g id="shape30-88" v:mID="30" v:groupContext="shape" transform="translate(-8.28261,-46.1525) rotate(-71.5651)">
			<title>Sheet.30</title>
			<path d="M0 226.59 L7.12 226.59" class="st3"/>
		</g>
		<g id="shape31-91" v:mID="31" v:groupContext="shape" transform="translate(-12.7826,-46.1525) rotate(-71.5651)">
			<title>Sheet.31</title>
			<path d="M0 226.59 L7.12 226.59" class="st3"/>
		</g>
		<g id="shape32-94" v:mID="32" v:groupContext="shape" transform="translate(-17.2826,-46.1525) rotate(-71.5651)">
			<title>Sheet.32</title>
			<path d="M0 226.59 L7.12 226.59" class="st3"/>
		</g>
		<g id="shape33-97" v:mID="33" v:groupContext="shape" transform="translate(-21.7826,-46.1525) rotate(-71.5651)">
			<title>Sheet.33</title>
			<path d="M0 226.59 L7.12 226.59" class="st3"/>
		</g>
		<g id="shape34-100" v:mID="34" v:groupContext="shape" transform="translate(-26.2826,-46.1525) rotate(-71.5651)">
			<title>Sheet.34</title>
			<path d="M0 226.59 L7.12 226.59" class="st3"/>
		</g>
		<g id="shape35-103" v:mID="35" v:groupContext="shape" transform="translate(-30.7826,-46.1525) rotate(-71.5651)">
			<title>Sheet.35</title>
			<path d="M0 226.59 L7.12 226.59" class="st3"/>
		</g>
		<g id="shape36-106" v:mID="36" v:groupContext="shape" transform="translate(-35.2826,-46.1525) rotate(-71.5651)">
			<title>Sheet.36</title>
			<path d="M0 226.59 L7.12 226.59" class="st3"/>
		</g>
		<g id="shape37-109" v:mID="37" v:groupContext="shape" transform="translate(-39.7826,-46.1525) rotate(-71.5651)">
			<title>Sheet.37</title>
			<path d="M0 226.59 L7.12 226.59" class="st3"/>
		</g>
		<g id="shape38-112" v:mID="38" v:groupContext="shape" transform="translate(-44.2826,-46.1525) rotate(-71.5651)">
			<title>Sheet.38</title>
			<path d="M0 226.59 L7.12 226.59" class="st3"/>
		</g>
		<g id="shape39-115" v:mID="39" v:groupContext="shape" transform="translate(-48.7826,-46.1525) rotate(-71.5651)">
			<title>Sheet.39</title>
			<path d="M0 226.59 L7.12 226.59" class="st3"/>
		</g>
		<g id="shape40-118" v:mID="40" v:groupContext="shape" transform="translate(-53.2826,-46.1525) rotate(-71.5651)">
			<title>Sheet.40</title>
			<path d="M0 226.59 L7.12 226.59" class="st3"/>
		</g>
		<g id="shape41-121" v:mID="41" v:groupContext="shape" transform="translate(-57.7826,-46.1525) rotate(-71.5651)">
			<title>Sheet.41</title>
			<path d="M0 226.59 L7.12 226.59" class="st3"/>
		</g>
		<g id="shape42-124" v:mID="42" v:groupContext="shape" transform="translate(-62.2826,-46.1525) rotate(-71.5651)">
			<title>Sheet.42</title>
			<path d="M0 226.59 L7.12 226.59" class="st3"/>
		</g>
		<g id="shape43-127" v:mID="43" v:groupContext="shape" transform="translate(-66.7826,-46.1525) rotate(-71.5651)">
			<title>Sheet.43</title>
			<path d="M0 226.59 L7.12 226.59" class="st3"/>
		</g>
		<g id="shape44-130" v:mID="44" v:groupContext="shape" transform="translate(-71.2826,-46.1525) rotate(-71.5651)">
			<title>Sheet.44</title>
			<path d="M0 226.59 L7.12 226.59" class="st3"/>
		</g>
		<g id="shape45-133" v:mID="45" v:groupContext="shape" transform="translate(-75.7826,-46.1525) rotate(-71.5651)">
			<title>Sheet.45</title>
			<path d="M0 226.59 L7.12 226.59" class="st3"/>
		</g>
		<g id="shape46-136" v:mID="46" v:groupContext="shape" transform="translate(-80.2826,-46.1525) rotate(-71.5651)">
			<title>Sheet.46</title>
			<path d="M0 226.59 L7.12 226.59" class="st3"/>
		</g>
		<g id="shape47-139" v:mID="47" v:groupContext="shape" transform="translate(-84.7826,-46.1525) rotate(-71.5651)">
			<title>Sheet.47</title>
			<path d="M0 226.59 L7.12 226.59" class="st3"/>
		</g>
		<g id="shape48-142" v:mID="48" v:groupContext="shape" transform="translate(-89.2826,-46.1525) rotate(-71.5651)">
			<title>Sheet.48</title>
			<path d="M0 226.59 L7.12 226.59" class="st3"/>
		</g>
		<g id="shape49-145" v:mID="49" v:groupContext="shape" transform="translate(-93.7826,-46.1525) rotate(-71.5651)">
			<title>Sheet.49</title>
			<path d="M0 226.59 L7.12 226.59" class="st3"/>
		</g>
		<g id="shape50-148" v:mID="50" v:groupContext="shape" transform="translate(-98.2826,-46.1525) rotate(-71.5651)">
			<title>Sheet.50</title>
			<path d="M0 226.59 L7.12 226.59" class="st3"/>
		</g>
		<g id="shape51-151" v:mID="51" v:groupContext="shape" transform="translate(-102.783,-46.1525) rotate(-71.5651)">
			<title>Sheet.51</title>
			<path d="M0 226.59 L7.12 226.59" class="st3"/>
		</g>
		<g id="shape52-154" v:mID="52" v:groupContext="shape" transform="translate(-107.283,-46.1525) rotate(-71.5651)">
			<title>Sheet.52</title>
			<path d="M0 226.59 L7.12 226.59" class="st3"/>
		</g>
		<g id="shape53-157" v:mID="53" v:groupContext="shape" transform="translate(-111.783,-46.1525) rotate(-71.5651)">
			<title>Sheet.53</title>
			<path d="M0 226.59 L7.12 226.59" class="st3"/>
		</g>
		<g id="shape54-160" v:mID="54" v:groupContext="shape" transform="translate(-116.283,-46.1525) rotate(-71.5651)">
			<title>Sheet.54</title>
			<path d="M0 226.59 L7.12 226.59" class="st3"/>
		</g>
		<g id="shape55-163" v:mID="55" v:groupContext="shape" transform="translate(-120.783,-46.1525) rotate(-71.5651)">
			<title>Sheet.55</title>
			<path d="M0 226.59 L7.12 226.59" class="st3"/>
		</g>
		<g id="shape56-166" v:mID="56" v:groupContext="shape" transform="translate(-125.283,-46.1525) rotate(-71.5651)">
			<title>Sheet.56</title>
			<path d="M0 226.59 L7.12 226.59" class="st3"/>
		</g>
		<g id="shape57-169" v:mID="57" v:groupContext="shape" transform="translate(-129.783,-46.1525) rotate(-71.5651)">
			<title>Sheet.57</title>
			<path d="M0 226.59 L7.12 226.59" class="st3"/>
		</g>
		<g id="shape58-172" v:mID="58" v:groupContext="shape" transform="translate(-134.283,-46.1525) rotate(-71.5651)">
			<title>Sheet.58</title>
			<path d="M0 226.59 L7.12 226.59" class="st3"/>
		</g>
		<g id="shape59-175" v:mID="59" v:groupContext="shape" transform="translate(117.717,-46.1525) rotate(-71.5651)">
			<title>Sheet.59</title>
			<path d="M0 226.59 L7.12 226.59" class="st3"/>
		</g>
		<g id="shape60-178" v:mID="60" v:groupContext="shape" transform="translate(114.425,-123.46)">
			<title>Circle</title>
			<v:userDefs>
				<v:ud v:nameU="visVersion" v:val="VT0(15):26"/>
			</v:userDefs>
			<path d="M0 204.09 A22.5 22.5 0 0 1 45 204.09 A22.5 22.5 0 1 1 0 204.09 Z" class="st4"/>
		</g>
		<g id="shape61-180" v:mID="61" v:groupContext="shape" transform="translate(249.425,-123.46)">
			<title>Circle.61</title>
			<v:userDefs>
				<v:ud v:nameU="visVersion" v:val="VT0(15):26"/>
			</v:userDefs>
			<path d="M0 204.09 A22.5 22.5 0 0 1 45 204.09 A22.5 22.5 0 1 1 0 204.09 Z" class="st4"/>
		</g>
		<g id="shape62-182" v:mID="62" v:groupContext="shape" transform="translate(363.51,25.5) rotate(90)">
			<title>Sheet.62</title>
			<path d="M0 226.59 L55.12 226.59" class="st3"/>
		</g>
		<g id="shape63-185" v:mID="63" v:groupContext="shape" transform="translate(498.51,25.5) rotate(90)">
			<title>Sheet.63</title>
			<path d="M0 226.59 L55.12 226.59" class="st3"/>
		</g>
		<g id="shape64-188" v:mID="64" v:groupContext="shape" transform="translate(341.01,80.625) rotate(90)">
			<title>Sheet.64</title>
			<path d="M0 226.59 L103.5 226.59" class="st3"/>
		</g>
		<g id="shape65-191" v:mID="65" v:groupContext="shape" transform="translate(521.01,80.625) rotate(90)">
			<title>Sheet.65</title>
			<path d="M0 226.59 L103.5 226.59" class="st3"/>
		</g>
		<g id="shape66-194" v:mID="66" v:groupContext="shape" transform="translate(359.42,-31.2656) rotate(63.6245)">
			<title>Sheet.66</title>
			<path d="M0 226.59 L103.73 226.59" class="st3"/>
		</g>
		<g id="shape67-197" v:mID="67" v:groupContext="shape" transform="translate(451.91,176.842) rotate(118.24)">
			<title>Sheet.67</title>
			<path d="M0 226.59 L105.23 226.59" class="st3"/>
		</g>
		<g id="shape68-200" v:mID="68" v:groupContext="shape" transform="translate(-24.0798,162.329) rotate(-90)">
			<title>Sheet.68</title>
			<path d="M0 226.59 L76.5 226.59" class="st5"/>
		</g>
		<g id="shape74-203" v:mID="74" v:groupContext="shape" transform="translate(189.768,-82.6566) rotate(-0.910071)">
			<title>Sheet.74</title>
			<path d="M0 226.59 C-0.14 226.28 0.77 225.63 1.74 225.13 C7.65 222.05 15.6 224.31 19.2 226.59" class="st3"/>
		</g>
		<g id="shape77-206" v:mID="77" v:groupContext="shape" transform="translate(180.711,-36.6477)">
			<title>Sheet.77</title>
			<rect x="0" y="198.46" width="45" height="28.125" class="st6"/>
		</g>
		<g id="shape78-208" v:mID="78" v:groupContext="shape" transform="translate(126.175,-42.4602)">
			<title>Sheet.78</title>
			<desc>√2m</desc>
			<v:textBlock v:margins="rect(4,4,4,4)"/>
			<v:textRect cx="76" cy="216.585" width="152" height="20"/>
			<rect x="0" y="206.585" width="152" height="20" class="st7"/>
			<text x="65.09" y="220.19" class="st8" v:langID="1033"><v:paragraph v:horizAlign="1"/><v:tabList/>√2m</text>		</g>
		<g id="shape84-211" v:mID="84" v:groupContext="shape" transform="translate(119.925,-82.4602)">
			<title>Sheet.84</title>
			<desc>θ</desc>
			<v:textBlock v:margins="rect(4,4,4,4)"/>
			<v:textRect cx="76" cy="216.585" width="152" height="20"/>
			<rect x="0" y="206.585" width="152" height="20" class="st1"/>
			<text x="72.73" y="220.19" class="st8" v:langID="1032"><v:paragraph v:horizAlign="1"/><v:tabList/>θ</text>		</g>
		<g id="shape87-214" v:mID="87" v:groupContext="shape" transform="translate(132.425,-82.4602)">
			<title>Sheet.87</title>
			<desc>θ</desc>
			<v:textBlock v:margins="rect(4,4,4,4)"/>
			<v:textRect cx="76" cy="216.585" width="152" height="20"/>
			<rect x="0" y="206.585" width="152" height="20" class="st1"/>
			<text x="72.73" y="220.19" class="st8" v:langID="1032"><v:paragraph v:horizAlign="1"/><v:tabList/>θ</text>		</g>
		<g id="shape88-217" v:mID="88" v:groupContext="shape" transform="translate(95.0305,-18.75)">
			<title>Sheet.88</title>
			<rect x="0" y="204.085" width="36" height="22.5" class="st6"/>
		</g>
		<g id="shape89-219" v:mID="89" v:groupContext="shape" transform="translate(276.368,-18.75)">
			<title>Sheet.89</title>
			<rect x="0" y="204.085" width="36" height="22.5" class="st6"/>
		</g>
		<g id="shape90-221" v:mID="90" v:groupContext="shape" transform="translate(37.0305,-18.75)">
			<title>Sheet.90</title>
			<desc>m</desc>
			<v:textBlock v:margins="rect(4,4,4,4)"/>
			<v:textRect cx="76" cy="216.585" width="152" height="20"/>
			<rect x="0" y="206.585" width="152" height="20" class="st7"/>
			<text x="71.12" y="220.19" class="st8" v:langID="1033"><v:paragraph v:horizAlign="1"/><v:tabList/>m</text>		</g>
		<g id="shape91-224" v:mID="91" v:groupContext="shape" transform="translate(218.368,-20)">
			<title>Sheet.91</title>
			<desc>m</desc>
			<v:textBlock v:margins="rect(4,4,4,4)"/>
			<v:textRect cx="76" cy="216.585" width="152" height="20"/>
			<rect x="0" y="206.585" width="152" height="20" class="st7"/>
			<text x="71.12" y="220.19" class="st8" v:langID="1033"><v:paragraph v:horizAlign="1"/><v:tabList/>m</text>		</g>
	</g>
</svg>
