<?xml version="1.0" encoding="UTF-8" standalone="no"?>
<!DOCTYPE svg PUBLIC "-//W3C//DTD SVG 1.1//EN" "http://www.w3.org/Graphics/SVG/1.1/DTD/svg11.dtd">
<!-- Generated by Microsoft Visio, SVG Export Sep27JE03-13-explanation.svg Page-1 -->
<svg xmlns="http://www.w3.org/2000/svg" xmlns:xlink="http://www.w3.org/1999/xlink" xmlns:ev="http://www.w3.org/2001/xml-events"
		xmlns:v="http://schemas.microsoft.com/visio/2003/SVGExtensions/" width="9.81892in" height="2.91786in"
		viewBox="0 0 706.962 210.086" xml:space="preserve" color-interpolation-filters="sRGB" class="st8">
	<v:documentProperties v:langID="1033" v:metric="true" v:viewMarkup="false">
		<v:userDefs>
			<v:ud v:nameU="msvSubprocessMaster" v:prompt="" v:val="VT4(Rectangle)"/>
			<v:ud v:nameU="msvNoAutoConnect" v:val="VT0(1):26"/>
		</v:userDefs>
	</v:documentProperties>

	<style type="text/css">
	<![CDATA[
		.st1 {fill:none;stroke:none;stroke-linecap:round;stroke-linejoin:round;stroke-width:4.5}
		.st2 {fill:#bdedff;font-family:Arial Rounded MT Bold;font-size:6.66666em}
		.st3 {stroke:#000000;stroke-linecap:round;stroke-linejoin:round;stroke-width:4.5}
		.st4 {fill:none;stroke:#000000;stroke-linecap:round;stroke-linejoin:round;stroke-width:4.5}
		.st5 {marker-end:url(#mrkr13-16);stroke:#000000;stroke-linecap:round;stroke-linejoin:round;stroke-width:4.5}
		.st6 {fill:#000000;fill-opacity:1;stroke:#000000;stroke-opacity:1;stroke-width:0.64102564102564}
		.st7 {fill:#000000;font-family:Calibri;font-size:3em;font-weight:bold}
		.st8 {fill:none;fill-rule:evenodd;font-size:12px;overflow:visible;stroke-linecap:square;stroke-miterlimit:3}
	]]>
	</style>

	<defs id="Markers">
		<g id="lend13">
			<path d="M 3 1 L 0 0 L 3 -1 L 3 1 " style="stroke:none"/>
		</g>
		<marker id="mrkr13-16" class="st6" v:arrowType="13" v:arrowSize="2" v:setback="4.68" refX="-4.68" orient="auto"
				markerUnits="strokeWidth" overflow="visible">
			<use xlink:href="#lend13" transform="scale(-1.56,-1.56) "/>
		</marker>
	</defs>
	<g v:mID="0" v:index="1" v:groupContext="foregroundPage">
		<v:userDefs>
			<v:ud v:nameU="msvThemeOrder" v:val="VT0(0):26"/>
		</v:userDefs>
		<title>Page-1</title>
		<v:pageProperties v:drawingScale="0.0393701" v:pageScale="0.0393701" v:drawingUnits="24" v:shadowOffsetX="8.50394"
				v:shadowOffsetY="-8.50394"/>
		<v:layer v:name="Connector" v:index="0"/>
		<g id="shape1-1" v:mID="1" v:groupContext="shape" transform="translate(20.25,-45.7254)">
			<title>Sheet.1</title>
			<desc>ExamSIDE.com</desc>
			<v:textBlock v:margins="rect(4,4,4,4)" v:tabSpace="42.5197"/>
			<v:textRect cx="333.231" cy="166.24" width="666.47" height="87.6924"/>
			<rect x="0" y="122.394" width="666.462" height="87.6924" class="st1"/>
			<text x="35.22" y="190.24" class="st2" v:langID="16393"><v:paragraph v:horizAlign="1"/><v:tabList/>ExamSIDE.com</text>		</g>
		<g id="shape2-4" v:mID="2" v:groupContext="shape" transform="translate(140.883,-42.9272)">
			<title>Sheet.2</title>
			<path d="M0 210.09 L496.06 210.09" class="st3"/>
		</g>
		<g id="shape3-7" v:mID="3" v:groupContext="shape" transform="translate(191.906,-42.9272)">
			<title>Rectangle</title>
			<v:userDefs>
				<v:ud v:nameU="visVersion" v:val="VT0(15):26"/>
			</v:userDefs>
			<rect x="0" y="125.047" width="147.402" height="85.0394" class="st4"/>
		</g>
		<g id="shape4-9" v:mID="4" v:groupContext="shape" transform="translate(339.308,-42.9272)">
			<title>Rectangle.4</title>
			<v:userDefs>
				<v:ud v:nameU="visVersion" v:val="VT0(15):26"/>
			</v:userDefs>
			<rect x="0" y="167.566" width="212.598" height="42.5197" class="st4"/>
		</g>
		<g id="shape5-11" v:mID="5" v:groupContext="shape" transform="translate(551.906,-64.187)">
			<title>Sheet.5</title>
			<path d="M0 210.09 L35.63 210.09" class="st5"/>
		</g>
		<g id="shape6-17" v:mID="6" v:groupContext="shape" transform="translate(339.308,-64.187)">
			<title>Sheet.6</title>
			<path d="M0 210.09 L35.63 210.09" class="st5"/>
		</g>
		<g id="shape7-22" v:mID="7" v:groupContext="shape" transform="translate(314.363,-146.108)">
			<title>Sheet.7</title>
			<path d="M0 210.09 L24.29 210.09" class="st5"/>
		</g>
		<g id="shape10-27" v:mID="10" v:groupContext="shape" transform="translate(385.795,251.365) rotate(113.629)">
			<title>Sheet.10</title>
			<path d="M0 210.09 L24.75 210.09" class="st3"/>
		</g>
		<g id="shape11-30" v:mID="11" v:groupContext="shape" transform="translate(404.221,251.365) rotate(113.629)">
			<title>Sheet.11</title>
			<path d="M0 210.09 L24.75 210.09" class="st3"/>
		</g>
		<g id="shape12-33" v:mID="12" v:groupContext="shape" transform="translate(424.468,251.365) rotate(113.629)">
			<title>Sheet.12</title>
			<path d="M0 210.09 L24.75 210.09" class="st3"/>
		</g>
		<g id="shape13-36" v:mID="13" v:groupContext="shape" transform="translate(442.691,251.365) rotate(113.629)">
			<title>Sheet.13</title>
			<path d="M0 210.09 L24.75 210.09" class="st3"/>
		</g>
		<g id="shape14-39" v:mID="14" v:groupContext="shape" transform="translate(458.079,251.365) rotate(113.629)">
			<title>Sheet.14</title>
			<path d="M0 210.09 L24.75 210.09" class="st3"/>
		</g>
		<g id="shape15-42" v:mID="15" v:groupContext="shape" transform="translate(475.087,251.365) rotate(113.629)">
			<title>Sheet.15</title>
			<path d="M0 210.09 L24.75 210.09" class="st3"/>
		</g>
		<g id="shape16-45" v:mID="16" v:groupContext="shape" transform="translate(371.15,251.365) rotate(113.629)">
			<title>Sheet.16</title>
			<path d="M0 210.09 L24.75 210.09" class="st3"/>
		</g>
		<g id="shape17-48" v:mID="17" v:groupContext="shape" transform="translate(354.952,251.365) rotate(113.629)">
			<title>Sheet.17</title>
			<path d="M0 210.09 L24.75 210.09" class="st3"/>
		</g>
		<g id="shape18-51" v:mID="18" v:groupContext="shape" transform="translate(521.69,251.365) rotate(113.629)">
			<title>Sheet.18</title>
			<path d="M0 210.09 L24.75 210.09" class="st3"/>
		</g>
		<g id="shape19-54" v:mID="19" v:groupContext="shape" transform="translate(540.115,251.365) rotate(113.629)">
			<title>Sheet.19</title>
			<path d="M0 210.09 L24.75 210.09" class="st3"/>
		</g>
		<g id="shape20-57" v:mID="20" v:groupContext="shape" transform="translate(560.362,251.365) rotate(113.629)">
			<title>Sheet.20</title>
			<path d="M0 210.09 L24.75 210.09" class="st3"/>
		</g>
		<g id="shape21-60" v:mID="21" v:groupContext="shape" transform="translate(578.585,251.365) rotate(113.629)">
			<title>Sheet.21</title>
			<path d="M0 210.09 L24.75 210.09" class="st3"/>
		</g>
		<g id="shape22-63" v:mID="22" v:groupContext="shape" transform="translate(593.973,251.365) rotate(113.629)">
			<title>Sheet.22</title>
			<path d="M0 210.09 L24.75 210.09" class="st3"/>
		</g>
		<g id="shape23-66" v:mID="23" v:groupContext="shape" transform="translate(610.981,251.365) rotate(113.629)">
			<title>Sheet.23</title>
			<path d="M0 210.09 L24.75 210.09" class="st3"/>
		</g>
		<g id="shape24-69" v:mID="24" v:groupContext="shape" transform="translate(507.044,251.365) rotate(113.629)">
			<title>Sheet.24</title>
			<path d="M0 210.09 L24.75 210.09" class="st3"/>
		</g>
		<g id="shape25-72" v:mID="25" v:groupContext="shape" transform="translate(490.846,251.365) rotate(113.629)">
			<title>Sheet.25</title>
			<path d="M0 210.09 L24.75 210.09" class="st3"/>
		</g>
		<g id="shape26-75" v:mID="26" v:groupContext="shape" transform="translate(657.584,251.365) rotate(113.629)">
			<title>Sheet.26</title>
			<path d="M0 210.09 L24.75 210.09" class="st3"/>
		</g>
		<g id="shape27-78" v:mID="27" v:groupContext="shape" transform="translate(676.009,251.365) rotate(113.629)">
			<title>Sheet.27</title>
			<path d="M0 210.09 L24.75 210.09" class="st3"/>
		</g>
		<g id="shape28-81" v:mID="28" v:groupContext="shape" transform="translate(696.257,251.365) rotate(113.629)">
			<title>Sheet.28</title>
			<path d="M0 210.09 L24.75 210.09" class="st3"/>
		</g>
		<g id="shape29-84" v:mID="29" v:groupContext="shape" transform="translate(714.479,251.365) rotate(113.629)">
			<title>Sheet.29</title>
			<path d="M0 210.09 L24.75 210.09" class="st3"/>
		</g>
		<g id="shape30-87" v:mID="30" v:groupContext="shape" transform="translate(729.867,251.365) rotate(113.629)">
			<title>Sheet.30</title>
			<path d="M0 210.09 L24.75 210.09" class="st3"/>
		</g>
		<g id="shape31-90" v:mID="31" v:groupContext="shape" transform="translate(746.875,251.365) rotate(113.629)">
			<title>Sheet.31</title>
			<path d="M0 210.09 L24.75 210.09" class="st3"/>
		</g>
		<g id="shape32-93" v:mID="32" v:groupContext="shape" transform="translate(642.938,251.365) rotate(113.629)">
			<title>Sheet.32</title>
			<path d="M0 210.09 L24.75 210.09" class="st3"/>
		</g>
		<g id="shape33-96" v:mID="33" v:groupContext="shape" transform="translate(626.74,251.365) rotate(113.629)">
			<title>Sheet.33</title>
			<path d="M0 210.09 L24.75 210.09" class="st3"/>
		</g>
		<g id="shape34-99" v:mID="34" v:groupContext="shape" transform="translate(790.981,251.365) rotate(113.629)">
			<title>Sheet.34</title>
			<path d="M0 210.09 L24.75 210.09" class="st3"/>
		</g>
		<g id="shape35-102" v:mID="35" v:groupContext="shape" transform="translate(809.406,251.365) rotate(113.629)">
			<title>Sheet.35</title>
			<path d="M0 210.09 L24.75 210.09" class="st3"/>
		</g>
		<g id="shape36-105" v:mID="36" v:groupContext="shape" transform="translate(829.654,251.365) rotate(113.629)">
			<title>Sheet.36</title>
			<path d="M0 210.09 L24.75 210.09" class="st3"/>
		</g>
		<g id="shape40-108" v:mID="40" v:groupContext="shape" transform="translate(776.335,251.365) rotate(113.629)">
			<title>Sheet.40</title>
			<path d="M0 210.09 L24.75 210.09" class="st3"/>
		</g>
		<g id="shape41-111" v:mID="41" v:groupContext="shape" transform="translate(760.137,251.365) rotate(113.629)">
			<title>Sheet.41</title>
			<path d="M0 210.09 L24.75 210.09" class="st3"/>
		</g>
		<g id="shape42-114" v:mID="42" v:groupContext="shape" transform="translate(126.709,-107.828)">
			<title>Sheet.42</title>
			<desc>M</desc>
			<v:textBlock v:margins="rect(4,4,4,4)" v:tabSpace="42.5197"/>
			<v:textRect cx="24.2289" cy="200.017" width="48.46" height="20.1389"/>
			<rect x="0" y="189.947" width="48.4578" height="20.1389" class="st1"/>
			<text x="8.5" y="210.82" class="st7" v:langID="16393"><v:paragraph v:horizAlign="1"/><v:tabList/>M</text>		</g>
		<g id="shape43-117" v:mID="43" v:groupContext="shape" transform="translate(312.898,-160.417)">
			<title>Sheet.43</title>
			<desc>a</desc>
			<v:textBlock v:margins="rect(4,4,4,4)" v:tabSpace="42.5197"/>
			<v:textRect cx="24.2289" cy="200.017" width="48.46" height="20.1389"/>
			<rect x="0" y="189.947" width="48.4578" height="20.1389" class="st1"/>
			<text x="15.34" y="210.82" class="st7" v:langID="16393"><v:paragraph v:horizAlign="1"/><v:tabList/>a</text>		</g>
		<g id="shape44-120" v:mID="44" v:groupContext="shape" transform="translate(481.04,-98.0154)">
			<title>Sheet.44</title>
			<desc>m</desc>
			<v:textBlock v:margins="rect(4,4,4,4)" v:tabSpace="42.5197"/>
			<v:textRect cx="24.2289" cy="200.017" width="48.46" height="20.1389"/>
			<rect x="0" y="189.947" width="48.4578" height="20.1389" class="st1"/>
			<text x="9.59" y="210.82" class="st7" v:langID="16393"><v:paragraph v:horizAlign="1"/><v:tabList/>m</text>		</g>
		<g id="shape45-123" v:mID="45" v:groupContext="shape" transform="translate(600.364,-54.1176)">
			<title>Sheet.45</title>
			<desc>P</desc>
			<v:textBlock v:margins="rect(4,4,4,4)" v:tabSpace="42.5197"/>
			<v:textRect cx="24.2289" cy="200.017" width="48.46" height="20.1389"/>
			<rect x="0" y="189.947" width="48.4578" height="20.1389" class="st1"/>
			<text x="14.65" y="210.82" class="st7" v:langID="16393"><v:paragraph v:horizAlign="1"/><v:tabList/>P</text>		</g>
		<g id="shape46-126" v:mID="46" v:groupContext="shape" transform="translate(390.063,-54.1176)">
			<title>Sheet.46</title>
			<desc>T</desc>
			<v:textBlock v:margins="rect(4,4,4,4)" v:tabSpace="42.5197"/>
			<v:textRect cx="24.2289" cy="200.017" width="48.46" height="20.1389"/>
			<rect x="0" y="189.947" width="48.4578" height="20.1389" class="st1"/>
			<text x="15.32" y="210.82" class="st7" v:langID="16393"><v:paragraph v:horizAlign="1"/><v:tabList/>T</text>		</g>
	</g>
</svg>
