<?xml version="1.0" encoding="UTF-8" standalone="no"?>
<!DOCTYPE svg PUBLIC "-//W3C//DTD SVG 1.1//EN" "http://www.w3.org/Graphics/SVG/1.1/DTD/svg11.dtd">
<!-- Generated by Microsoft Visio, SVG Export may201240.svg Page-1 -->
<svg xmlns="http://www.w3.org/2000/svg" xmlns:xlink="http://www.w3.org/1999/xlink" xmlns:ev="http://www.w3.org/2001/xml-events"
		xmlns:v="http://schemas.microsoft.com/visio/2003/SVGExtensions/" width="10.5896in" height="5.42067in"
		viewBox="0 0 762.454 390.288" xml:space="preserve" color-interpolation-filters="sRGB" class="st10">
	<v:documentProperties v:langID="1033" v:metric="true" v:viewMarkup="false">
		<v:userDefs>
			<v:ud v:nameU="msvSubprocessMaster" v:prompt="" v:val="VT4(Rectangle)"/>
			<v:ud v:nameU="msvNoAutoConnect" v:val="VT0(1):26"/>
		</v:userDefs>
	</v:documentProperties>

	<style type="text/css">
	<![CDATA[
		.st1 {fill:none;stroke:none;stroke-linecap:round;stroke-linejoin:round;stroke-width:0.75}
		.st2 {fill:#bdedff;font-family:Arial Rounded MT Bold;font-size:4.99999em}
		.st3 {stroke:#000000;stroke-linecap:round;stroke-linejoin:round;stroke-width:2.25}
		.st4 {marker-end:url(#mrkr13-48);stroke:#000000;stroke-linecap:round;stroke-linejoin:round;stroke-width:2.25}
		.st5 {fill:#000000;fill-opacity:1;stroke:#000000;stroke-opacity:1;stroke-width:0.47169811320755}
		.st6 {marker-start:url(#mrkr13-54);stroke:#000000;stroke-linecap:round;stroke-linejoin:round;stroke-width:2.25}
		.st7 {fill:none;stroke:none;stroke-width:0.25}
		.st8 {fill:#000000;font-family:Calibri;font-size:1.99999em}
		.st9 {fill:#000000;font-family:Calibri;font-size:3em}
		.st10 {fill:none;fill-rule:evenodd;font-size:12px;overflow:visible;stroke-linecap:square;stroke-miterlimit:3}
	]]>
	</style>

	<defs id="Markers">
		<g id="lend13">
			<path d="M 3 1 L 0 0 L 3 -1 L 3 1 " style="stroke:none"/>
		</g>
		<marker id="mrkr13-48" class="st5" v:arrowType="13" v:arrowSize="2" v:setback="6.36" refX="-6.36" orient="auto"
				markerUnits="strokeWidth" overflow="visible">
			<use xlink:href="#lend13" transform="scale(-2.12,-2.12) "/>
		</marker>
		<marker id="mrkr13-54" class="st5" v:arrowType="13" v:arrowSize="2" v:setback="6.2" refX="6.2" orient="auto"
				markerUnits="strokeWidth" overflow="visible">
			<use xlink:href="#lend13" transform="scale(2.12) "/>
		</marker>
	</defs>
	<g v:mID="0" v:index="1" v:groupContext="foregroundPage">
		<v:userDefs>
			<v:ud v:nameU="msvThemeOrder" v:val="VT0(0):26"/>
		</v:userDefs>
		<title>Page-1</title>
		<v:pageProperties v:drawingScale="0.0393701" v:pageScale="0.0393701" v:drawingUnits="24" v:shadowOffsetX="8.50394"
				v:shadowOffsetY="-8.50394"/>
		<v:layer v:name="Connector" v:index="0"/>
		<g id="shape1-1" v:mID="1" v:groupContext="shape" transform="translate(18.375,-93.0074)">
			<title>Sheet.1</title>
			<desc>ExamSIDE.com</desc>
			<v:textBlock v:margins="rect(4,4,4,4)" v:tabSpace="42.5197"/>
			<v:textRect cx="333.231" cy="346.442" width="666.47" height="87.6924"/>
			<rect x="0" y="302.596" width="666.462" height="87.6924" class="st1"/>
			<text x="109.73" y="364.44" class="st2" v:langID="16393"><v:paragraph v:horizAlign="1"/><v:tabList/>ExamSIDE.com</text>		</g>
		<g id="shape2-4" v:mID="2" v:groupContext="shape" transform="translate(167.354,-53.1407)">
			<title>Sheet.2</title>
			<path d="M0 390.29 L425.2 390.29" class="st3"/>
		</g>
		<g id="shape3-7" v:mID="3" v:groupContext="shape" transform="translate(471.676,613.123) rotate(135)">
			<title>Sheet.3</title>
			<path d="M0 390.29 L48.11 390.29" class="st3"/>
		</g>
		<g id="shape4-10" v:mID="4" v:groupContext="shape" transform="translate(698.448,613.123) rotate(135)">
			<title>Sheet.4</title>
			<path d="M0 390.29 L48.11 390.29" class="st3"/>
		</g>
		<g id="shape5-13" v:mID="5" v:groupContext="shape" transform="translate(678.605,613.123) rotate(135)">
			<title>Sheet.5</title>
			<path d="M0 390.29 L48.11 390.29" class="st3"/>
		</g>
		<g id="shape6-16" v:mID="6" v:groupContext="shape" transform="translate(658.763,613.123) rotate(135)">
			<title>Sheet.6</title>
			<path d="M0 390.29 L48.11 390.29" class="st3"/>
		</g>
		<g id="shape7-19" v:mID="7" v:groupContext="shape" transform="translate(644.589,613.123) rotate(135)">
			<title>Sheet.7</title>
			<path d="M0 390.29 L48.11 390.29" class="st3"/>
		</g>
		<g id="shape8-22" v:mID="8" v:groupContext="shape" transform="translate(621.912,613.123) rotate(135)">
			<title>Sheet.8</title>
			<path d="M0 390.29 L48.11 390.29" class="st3"/>
		</g>
		<g id="shape9-25" v:mID="9" v:groupContext="shape" transform="translate(599.235,613.123) rotate(135)">
			<title>Sheet.9</title>
			<path d="M0 390.29 L48.11 390.29" class="st3"/>
		</g>
		<g id="shape10-28" v:mID="10" v:groupContext="shape" transform="translate(570.889,613.123) rotate(135)">
			<title>Sheet.10</title>
			<path d="M0 390.29 L48.11 390.29" class="st3"/>
		</g>
		<g id="shape11-31" v:mID="11" v:groupContext="shape" transform="translate(542.542,613.123) rotate(135)">
			<title>Sheet.11</title>
			<path d="M0 390.29 L48.11 390.29" class="st3"/>
		</g>
		<g id="shape12-34" v:mID="12" v:groupContext="shape" transform="translate(514.196,613.123) rotate(135)">
			<title>Sheet.12</title>
			<path d="M0 390.29 L48.11 390.29" class="st3"/>
		</g>
		<g id="shape13-37" v:mID="13" v:groupContext="shape" transform="translate(493.786,613.123) rotate(135)">
			<title>Sheet.13</title>
			<path d="M0 390.29 L48.11 390.29" class="st3"/>
		</g>
		<g id="shape15-40" v:mID="15" v:groupContext="shape" transform="translate(103.977,613.123) rotate(-135)">
			<title>Sheet.15</title>
			<path d="M0 390.29 L121.87 390.29" class="st3"/>
		</g>
		<g id="shape16-43" v:mID="16" v:groupContext="shape" transform="translate(878.164,390.887) rotate(135)">
			<title>Sheet.16</title>
			<path d="M0 390.29 L186.13 390.29" class="st4"/>
		</g>
		<g id="shape19-49" v:mID="19" v:groupContext="shape" transform="translate(17.8037,526.95) rotate(-135)">
			<title>Sheet.19</title>
			<path d="M13.95 390.29 L14.31 390.29 L198.84 390.29" class="st6"/>
		</g>
		<g id="shape20-55" v:mID="20" v:groupContext="shape" transform="translate(736.432,532.619) rotate(135)">
			<title>Sheet.20</title>
			<path d="M0 390.29 L113.85 390.29" class="st3"/>
		</g>
		<g id="shape21-58" v:mID="21" v:groupContext="shape" transform="translate(-9.20205,336.014) rotate(-90)">
			<title>Sheet.21</title>
			<path d="M0 390.29 L182.98 390.29" class="st4"/>
		</g>
		<g id="shape22-63" v:mID="22" v:groupContext="shape" transform="translate(770.163,74.2253) rotate(88.8542)">
			<title>Sheet.22</title>
			<path d="M0 390.29 L56.7 390.29" class="st3"/>
		</g>
		<g id="shape23-66" v:mID="23" v:groupContext="shape" transform="translate(718.29,613.123) rotate(135)">
			<title>Sheet.23</title>
			<path d="M0 390.29 L48.11 390.29" class="st3"/>
		</g>
		<g id="shape24-69" v:mID="24" v:groupContext="shape" transform="translate(740.967,613.123) rotate(135)">
			<title>Sheet.24</title>
			<path d="M0 390.29 L48.11 390.29" class="st3"/>
		</g>
		<g id="shape25-72" v:mID="25" v:groupContext="shape" transform="translate(763.645,613.123) rotate(135)">
			<title>Sheet.25</title>
			<path d="M0 390.29 L48.11 390.29" class="st3"/>
		</g>
		<g id="shape26-75" v:mID="26" v:groupContext="shape" transform="translate(783.487,613.123) rotate(135)">
			<title>Sheet.26</title>
			<path d="M0 390.29 L48.11 390.29" class="st3"/>
		</g>
		<g id="shape27-78" v:mID="27" v:groupContext="shape" transform="translate(803.33,613.123) rotate(135)">
			<title>Sheet.27</title>
			<path d="M0 390.29 L48.11 390.29" class="st3"/>
		</g>
		<g id="shape28-81" v:mID="28" v:groupContext="shape" transform="translate(826.007,613.123) rotate(135)">
			<title>Sheet.28</title>
			<path d="M0 390.29 L48.11 390.29" class="st3"/>
		</g>
		<g id="shape29-84" v:mID="29" v:groupContext="shape" transform="translate(848.684,613.123) rotate(135)">
			<title>Sheet.29</title>
			<path d="M0 390.29 L48.11 390.29" class="st3"/>
		</g>
		<g id="shape30-87" v:mID="30" v:groupContext="shape" transform="translate(270.819,-201.96)">
			<title>Sheet.30</title>
			<desc>^</desc>
			<v:textBlock v:margins="rect(4,4,4,4)" v:tabSpace="42.5197"/>
			<v:textRect cx="137.48" cy="305.249" width="274.97" height="170.079"/>
			<rect x="0" y="220.21" width="274.961" height="170.079" class="st7"/>
			<text x="131.5" y="316.05" class="st8" v:langID="16393"><v:paragraph v:horizAlign="1"/><v:tabList/>^</text>		</g>
		<g id="shape37-90" v:mID="37" v:groupContext="shape" transform="translate(469.244,-152.353)">
			<title>Sheet.37</title>
			<desc>^</desc>
			<v:textBlock v:margins="rect(4,4,4,4)" v:tabSpace="42.5197"/>
			<v:textRect cx="137.48" cy="305.249" width="274.97" height="170.079"/>
			<rect x="0" y="220.21" width="274.961" height="170.079" class="st7"/>
			<text x="131.5" y="312.45" class="st8" v:langID="16393"><v:paragraph v:horizAlign="1"/><v:tabList/>^</text>		</g>
		<g id="shape43-93" v:mID="43" v:groupContext="shape" transform="translate(375.701,-243.062)">
			<title>Sheet.43</title>
			<desc>a</desc>
			<v:textBlock v:margins="rect(4,4,4,4)" v:tabSpace="42.5197"/>
			<v:textRect cx="41.811" cy="361.888" width="83.63" height="56.7999"/>
			<rect x="0" y="333.489" width="83.622" height="56.7999" class="st7"/>
			<text x="33.19" y="372.69" class="st9" v:langID="16393"><v:paragraph v:horizAlign="1"/><v:tabList/>a</text>		</g>
		<g id="shape45-96" v:mID="45" v:groupContext="shape" transform="translate(542.945,-191.74)">
			<title>Sheet.45</title>
			<desc>w</desc>
			<v:textBlock v:margins="rect(4,4,4,4)" v:tabSpace="42.5197"/>
			<v:textRect cx="73.3628" cy="356.123" width="146.73" height="68.3299"/>
			<rect x="0" y="321.959" width="146.726" height="68.3299" class="st7"/>
			<text x="60.5" y="366.92" class="st9" v:langID="16393"><v:paragraph v:horizAlign="1"/><v:tabList/>w</text>		</g>
		<g id="shape77-99" v:mID="77" v:groupContext="shape" transform="translate(130.504,-201.96)">
			<title>Sheet.77</title>
			<desc>^</desc>
			<v:textBlock v:margins="rect(4,4,4,4)" v:tabSpace="42.5197"/>
			<v:textRect cx="46.7717" cy="361.942" width="93.55" height="56.6929"/>
			<rect x="0" y="333.595" width="93.5433" height="56.6929" class="st7"/>
			<text x="40.8" y="369.14" class="st8" v:langID="16393"><v:paragraph v:horizAlign="1"/><v:tabList/>^</text>		</g>
		<g id="shape78-102" v:mID="78" v:groupContext="shape" transform="translate(140.425,-189.651)">
			<title>Sheet.78</title>
			<desc>v</desc>
			<v:textBlock v:margins="rect(4,4,4,4)" v:tabSpace="42.5197"/>
			<v:textRect cx="46.7717" cy="361.888" width="93.55" height="56.7999"/>
			<rect x="0" y="333.489" width="93.5433" height="56.7999" class="st7"/>
			<text x="38.64" y="372.69" class="st9" v:langID="16393"><v:paragraph v:horizAlign="1"/><v:tabList/>v</text>		</g>
	</g>
</svg>
