<?xml version="1.0" encoding="UTF-8" standalone="no"?>
<!DOCTYPE svg PUBLIC "-//W3C//DTD SVG 1.1//EN" "http://www.w3.org/Graphics/SVG/1.1/DTD/svg11.dtd">
<!-- Generated by Microsoft Visio, SVG Export Sep30JE13-30.svg Page-1 -->
<svg xmlns="http://www.w3.org/2000/svg" xmlns:xlink="http://www.w3.org/1999/xlink" xmlns:ev="http://www.w3.org/2001/xml-events"
		xmlns:v="http://schemas.microsoft.com/visio/2003/SVGExtensions/" width="9.20723in" height="2.78878in"
		viewBox="0 0 662.92 200.792" xml:space="preserve" color-interpolation-filters="sRGB" class="st12">
	<v:documentProperties v:langID="1033" v:metric="true" v:viewMarkup="false">
		<v:userDefs>
			<v:ud v:nameU="msvSubprocessMaster" v:prompt="" v:val="VT4(Rectangle)"/>
			<v:ud v:nameU="msvNoAutoConnect" v:val="VT0(1):26"/>
		</v:userDefs>
	</v:documentProperties>

	<style type="text/css">
	<![CDATA[
		.st1 {fill:none;stroke:none;stroke-linecap:round;stroke-linejoin:round;stroke-width:4.5}
		.st2 {fill:#bdedff;font-family:Arial Rounded MT Bold;font-size:6.66666em}
		.st3 {fill:none;stroke:#000000;stroke-linecap:round;stroke-linejoin:round;stroke-width:4.5}
		.st4 {stroke:#000000;stroke-linecap:round;stroke-linejoin:round;stroke-width:4.5}
		.st5 {marker-end:url(#mrkr13-16);stroke:#000000;stroke-linecap:round;stroke-linejoin:round;stroke-width:4.5}
		.st6 {fill:#000000;fill-opacity:1;stroke:#000000;stroke-opacity:1;stroke-width:0.64102564102564}
		.st7 {marker-start:url(#mrkr42-27);stroke:#000000;stroke-linecap:round;stroke-linejoin:round;stroke-width:4.5}
		.st8 {marker-end:url(#mrkr13-33);stroke:#000000;stroke-linecap:round;stroke-linejoin:round;stroke-width:4.5}
		.st9 {fill:none;stroke:none;stroke-width:4.5}
		.st10 {fill:#000000;font-family:Calibri;font-size:3em;font-weight:bold}
		.st11 {marker-end:url(#mrkr42-45);stroke:#000000;stroke-linecap:round;stroke-linejoin:round;stroke-width:4.5}
		.st12 {fill:none;fill-rule:evenodd;font-size:12px;overflow:visible;stroke-linecap:square;stroke-miterlimit:3}
	]]>
	</style>

	<defs id="Markers">
		<g id="lend13">
			<path d="M 3 1 L 0 0 L 3 -1 L 3 1 " style="stroke:none"/>
		</g>
		<marker id="mrkr13-16" class="st6" v:arrowType="13" v:arrowSize="2" v:setback="4.6" refX="-4.6" orient="auto"
				markerUnits="strokeWidth" overflow="visible">
			<use xlink:href="#lend13" transform="scale(-1.56,-1.56) "/>
		</marker>
		<g id="lend42">
			<path
					d="M 0 0.75 C -0.414214 0.75 -0.75 0.414214 -0.75 0 -0.75 -0.414214 -0.414214 -0.75 0 -0.75 0.414214 -0.75 0.75 -0.414214 0.75 0 0.75 0.414214 0.414214 0.75 0 0.75 Z "
					style="stroke:none"/>
		</g>
		<marker id="mrkr42-27" class="st6" v:arrowType="42" v:arrowSize="2" v:setback="1.09" refX="1.09" orient="auto"
				markerUnits="strokeWidth" overflow="visible">
			<use xlink:href="#lend42" transform="scale(1.56) "/>
		</marker>
		<marker id="mrkr13-33" class="st6" v:arrowType="13" v:arrowSize="2" v:setback="4.68" refX="-4.68" orient="auto"
				markerUnits="strokeWidth" overflow="visible">
			<use xlink:href="#lend13" transform="scale(-1.56,-1.56) "/>
		</marker>
		<marker id="mrkr42-45" class="st6" v:arrowType="42" v:arrowSize="2" v:setback="1.17" refX="-1.17" orient="auto"
				markerUnits="strokeWidth" overflow="visible">
			<use xlink:href="#lend42" transform="scale(-1.56,-1.56) "/>
		</marker>
	</defs>
	<g v:mID="0" v:index="1" v:groupContext="foregroundPage">
		<v:userDefs>
			<v:ud v:nameU="msvThemeOrder" v:val="VT0(0):26"/>
		</v:userDefs>
		<title>Page-1</title>
		<v:pageProperties v:drawingScale="0.0393701" v:pageScale="0.0393701" v:drawingUnits="24" v:shadowOffsetX="8.50394"
				v:shadowOffsetY="-8.50394"/>
		<v:layer v:name="Connector" v:index="0"/>
		<g id="shape1-1" v:mID="1" v:groupContext="shape" transform="translate(21,-26.6173)">
			<title>Sheet.1</title>
			<desc>ExamSIDE.com</desc>
			<v:textBlock v:margins="rect(4,4,4,4)" v:tabSpace="42.5197"/>
			<v:textRect cx="310.46" cy="156.946" width="620.93" height="87.6924"/>
			<rect x="0" y="113.1" width="620.92" height="87.6924" class="st1"/>
			<text x="12.45" y="180.95" class="st2" v:langID="16393"><v:paragraph v:horizAlign="1"/><v:tabList/>ExamSIDE.com</text>		</g>
		<g id="shape2-4" v:mID="2" v:groupContext="shape" transform="translate(74.8213,-26.6173)">
			<title>Circle</title>
			<v:userDefs>
				<v:ud v:nameU="visVersion" v:val="VT0(15):26"/>
			</v:userDefs>
			<path d="M0 124.2 A76.5874 76.5874 0 0 1 153.17 124.2 A76.5874 76.5874 0 1 1 0 124.2 Z" class="st3"/>
		</g>
		<g id="shape3-6" v:mID="3" v:groupContext="shape" transform="translate(407.58,-26.6173)">
			<title>Circle.3</title>
			<v:userDefs>
				<v:ud v:nameU="visVersion" v:val="VT0(15):26"/>
			</v:userDefs>
			<path d="M0 124.2 A76.5874 76.5874 0 0 1 153.17 124.2 A76.5874 76.5874 0 1 1 0 124.2 Z" class="st3"/>
		</g>
		<g id="shape4-8" v:mID="4" v:groupContext="shape" transform="translate(32.5661,-21)">
			<title>Sheet.4</title>
			<path d="M0 200.79 L581.01 200.79" class="st4"/>
		</g>
		<g id="shape10-11" v:mID="10" v:groupContext="shape" transform="translate(269.432,-70.2938) rotate(47.026)">
			<title>Sheet.10</title>
			<path d="M0 200.79 C1.7 180.13 13.19 168.7 26.88 163.93 C46.6 157.05 70.89 163.99 80.69 180.13 L80.76 180.48"
					class="st5"/>
		</g>
		<g id="shape11-17" v:mID="11" v:groupContext="shape" transform="translate(602.191,-70.2938) rotate(47.026)">
			<title>Sheet.11</title>
			<path d="M0 200.79 C1.7 180.13 13.19 168.7 26.88 163.93 C46.6 157.05 70.89 163.99 80.69 180.13 L80.76 180.48"
					class="st5"/>
		</g>
		<g id="shape12-22" v:mID="12" v:groupContext="shape" transform="translate(9.42718,-44.3941) rotate(-45)">
			<title>Sheet.12</title>
			<path d="M4.9 200.79 L5.26 200.79 L76.6 200.79" class="st7"/>
		</g>
		<g id="shape13-28" v:mID="13" v:groupContext="shape" transform="translate(484.168,-103.205)">
			<title>Sheet.13</title>
			<path d="M0 200.79 L108.35 200.79" class="st8"/>
		</g>
		<g id="shape14-34" v:mID="14" v:groupContext="shape" transform="translate(74.8213,-152.1)">
			<title>Sheet.14</title>
			<desc>r</desc>
			<v:textBlock v:margins="rect(4,4,4,4)" v:tabSpace="42.5197"/>
			<v:textRect cx="90.0221" cy="191.86" width="180.05" height="17.8638"/>
			<rect x="0" y="182.928" width="180.044" height="17.8638" class="st9"/>
			<text x="83.62" y="202.66" class="st10" v:langID="16393"><v:paragraph v:horizAlign="1"/><v:tabList/>r</text>		</g>
		<g id="shape15-37" v:mID="15" v:groupContext="shape" transform="translate(50.048,-77.6929)">
			<title>Sheet.15</title>
			<desc>O</desc>
			<v:textBlock v:margins="rect(4,4,4,4)" v:tabSpace="42.5197"/>
			<v:textRect cx="90.0221" cy="191.86" width="180.05" height="17.8638"/>
			<rect x="0" y="182.928" width="180.044" height="17.8638" class="st9"/>
			<text x="77.85" y="202.66" class="st10" v:langID="16393"><v:paragraph v:horizAlign="1"/><v:tabList/>O</text>		</g>
		<g id="shape16-40" v:mID="16" v:groupContext="shape" transform="translate(557.354,298.38) rotate(180)">
			<title>Sheet.16</title>
			<path d="M0 200.79 L71.32 200.79" class="st11"/>
		</g>
		<g id="shape17-46" v:mID="17" v:groupContext="shape" transform="translate(385.246,-74.0041)">
			<title>Sheet.17</title>
			<desc>O</desc>
			<v:textBlock v:margins="rect(4,4,4,4)" v:tabSpace="42.5197"/>
			<v:textRect cx="90.0221" cy="191.86" width="180.05" height="17.8638"/>
			<rect x="0" y="182.928" width="180.044" height="17.8638" class="st9"/>
			<text x="77.85" y="202.66" class="st10" v:langID="16393"><v:paragraph v:horizAlign="1"/><v:tabList/>O</text>		</g>
		<g id="shape18-49" v:mID="18" v:groupContext="shape" transform="translate(153.676,-107.74)">
			<title>Sheet.18</title>
			<path d="M0 200.79 L108.35 200.79" class="st8"/>
		</g>
	</g>
</svg>
