<?xml version="1.0" encoding="UTF-8" standalone="no"?>
<!DOCTYPE svg PUBLIC "-//W3C//DTD SVG 1.1//EN" "http://www.w3.org/Graphics/SVG/1.1/DTD/svg11.dtd">
<!-- Generated by Microsoft Visio, SVG Export Oct04JE11-37.svg Page-1 -->
<svg xmlns="http://www.w3.org/2000/svg" xmlns:xlink="http://www.w3.org/1999/xlink" xmlns:ev="http://www.w3.org/2001/xml-events"
		xmlns:v="http://schemas.microsoft.com/visio/2003/SVGExtensions/" width="11.4116in" height="6.2851in"
		viewBox="0 0 821.634 452.527" xml:space="preserve" color-interpolation-filters="sRGB" class="st18">
	<v:documentProperties v:langID="1033" v:metric="true" v:viewMarkup="false">
		<v:userDefs>
			<v:ud v:nameU="msvSubprocessMaster" v:prompt="" v:val="VT4(Rectangle)"/>
			<v:ud v:nameU="msvNoAutoConnect" v:val="VT0(1):26"/>
		</v:userDefs>
	</v:documentProperties>

	<style type="text/css">
	<![CDATA[
		.st1 {fill:none;stroke:none;stroke-linecap:round;stroke-linejoin:round;stroke-width:4.5}
		.st2 {fill:#bdedff;font-family:Arial Rounded MT Bold;font-size:7.5em}
		.st3 {stroke:#000000;stroke-linecap:round;stroke-linejoin:round;stroke-width:4.5}
		.st4 {marker-start:url(#mrkr13-12);stroke:#000000;stroke-linecap:round;stroke-linejoin:round;stroke-width:4.5}
		.st5 {fill:#000000;fill-opacity:1;stroke:#000000;stroke-opacity:1;stroke-width:0.64102564102564}
		.st6 {marker-end:url(#mrkr13-18);stroke:#000000;stroke-linecap:round;stroke-linejoin:round;stroke-width:4.5}
		.st7 {stroke:#000000;stroke-dasharray:4.5,9;stroke-linecap:round;stroke-linejoin:round;stroke-width:4.5}
		.st8 {marker-end:url(#mrkr10-27);stroke:#000000;stroke-linecap:round;stroke-linejoin:round;stroke-width:4.5}
		.st9 {marker-start:url(#mrkr10-33);stroke:#000000;stroke-linecap:round;stroke-linejoin:round;stroke-width:4.5}
		.st10 {fill:none;stroke:none;stroke-width:0.25}
		.st11 {fill:#000000;font-family:Calibri;font-size:3em;font-weight:bold}
		.st12 {font-size:1em}
		.st13 {fill:#000000;font-family:Calibri;font-size:3em}
		.st14 {fill:#000000;font-family:Calibri;font-size:3em;font-style:italic;font-weight:bold}
		.st15 {baseline-shift:-32.4951%;font-size:0.649902em}
		.st16 {font-size:1em;font-style:normal}
		.st17 {fill:#000000;font-family:Vivaldi;font-size:3em;font-weight:bold}
		.st18 {fill:none;fill-rule:evenodd;font-size:12px;overflow:visible;stroke-linecap:square;stroke-miterlimit:3}
	]]>
	</style>

	<defs id="Markers">
		<g id="lend13">
			<path d="M 3 1 L 0 0 L 3 -1 L 3 1 " style="stroke:none"/>
		</g>
		<marker id="mrkr13-12" class="st5" v:arrowType="13" v:arrowSize="2" v:setback="4.6" refX="4.6" orient="auto"
				markerUnits="strokeWidth" overflow="visible">
			<use xlink:href="#lend13" transform="scale(1.56) "/>
		</marker>
		<marker id="mrkr13-18" class="st5" v:arrowType="13" v:arrowSize="2" v:setback="4.68" refX="-4.68" orient="auto"
				markerUnits="strokeWidth" overflow="visible">
			<use xlink:href="#lend13" transform="scale(-1.56,-1.56) "/>
		</marker>
		<g id="lend10">
			<path
					d="M 0 0.75 C -0.414214 0.75 -0.75 0.414214 -0.75 0 -0.75 -0.414214 -0.414214 -0.75 0 -0.75 0.414214 -0.75 0.75 -0.414214 0.75 0 0.75 0.414214 0.414214 0.75 0 0.75 Z "
					style="stroke:none"/>
		</g>
		<marker id="mrkr10-27" class="st5" v:arrowType="10" v:arrowSize="2" v:setback="1.17" refX="-1.17" orient="auto"
				markerUnits="strokeWidth" overflow="visible">
			<use xlink:href="#lend10" transform="scale(-1.56,-1.56) "/>
		</marker>
		<marker id="mrkr10-33" class="st5" v:arrowType="10" v:arrowSize="2" v:setback="1.09" refX="1.09" orient="auto"
				markerUnits="strokeWidth" overflow="visible">
			<use xlink:href="#lend10" transform="scale(1.56) "/>
		</marker>
	</defs>
	<g v:mID="0" v:index="1" v:groupContext="foregroundPage">
		<v:userDefs>
			<v:ud v:nameU="msvThemeOrder" v:val="VT0(0):26"/>
		</v:userDefs>
		<title>Page-1</title>
		<v:pageProperties v:drawingScale="0.0393701" v:pageScale="0.0393701" v:drawingUnits="24" v:shadowOffsetX="8.50394"
				v:shadowOffsetY="-8.50394"/>
		<v:layer v:name="Connector" v:index="0"/>
		<g id="shape1-1" v:mID="1" v:groupContext="shape" transform="translate(62.5335,-191.514)">
			<title>Sheet.1</title>
			<desc>ExamSIDE.com</desc>
			<v:textBlock v:margins="rect(4,4,4,4)" v:tabSpace="42.5197"/>
			<v:textRect cx="369.425" cy="408.681" width="738.86" height="87.6924"/>
			<rect x="0" y="364.835" width="738.85" height="87.6924" class="st1"/>
			<text x="34.17" y="435.68" class="st2" v:langID="16393"><v:paragraph v:horizAlign="1"/><v:tabList/>ExamSIDE.com</text>		</g>
		<g id="shape3-4" v:mID="3" v:groupContext="shape" transform="translate(-150.042,34.8103) rotate(-53.2971)">
			<title>Sheet.3</title>
			<path d="M0 452.53 L320.14 452.53" class="st3"/>
		</g>
		<g id="shape4-7" v:mID="4" v:groupContext="shape" transform="translate(311.982,757.798) rotate(180)">
			<title>Sheet.4</title>
			<path d="M20.7 452.53 L21.06 452.53 L99.21 452.53" class="st4"/>
		</g>
		<g id="shape5-13" v:mID="5" v:groupContext="shape" transform="translate(-150.042,34.8103) rotate(-53.2971)">
			<title>Sheet.5</title>
			<path d="M0 452.53 L75.33 452.53" class="st6"/>
		</g>
		<g id="shape6-19" v:mID="6" v:groupContext="shape" transform="translate(595.447,757.798) rotate(180)">
			<title>Sheet.6</title>
			<path d="M0 452.53 L277.8 452.53" class="st7"/>
		</g>
		<g id="shape8-22" v:mID="8" v:groupContext="shape" transform="translate(766.92,-221.863) rotate(53.2971)">
			<title>Sheet.8</title>
			<path d="M0 452.53 L314.88 452.53" class="st8"/>
		</g>
		<g id="shape10-28" v:mID="10" v:groupContext="shape" transform="translate(219.006,-147.762) rotate(0.738349)">
			<title>Sheet.10</title>
			<path d="M4.9 452.53 L5.26 452.53 L42.12 452.53" class="st9"/>
		</g>
		<g id="shape11-34" v:mID="11" v:groupContext="shape" transform="translate(-239.62,305.085) rotate(-90)">
			<title>Sheet.11</title>
			<path d="M0 452.53 L79.52 452.53" class="st6"/>
		</g>
		<g id="shape12-39" v:mID="12" v:groupContext="shape" transform="translate(-239.758,405.853) rotate(-90)">
			<title>Sheet.12</title>
			<path d="M20.7 452.53 L21.06 452.53 L100.58 452.53" class="st4"/>
		</g>
		<g id="shape13-44" v:mID="13" v:groupContext="shape" transform="translate(212.77,757.376) rotate(180)">
			<title>Sheet.13</title>
			<path d="M0 452.53 L78.15 452.53" class="st6"/>
		</g>
		<g id="shape14-49" v:mID="14" v:groupContext="shape" transform="translate(212.77,-120.466)">
			<title>Sheet.14</title>
			<path d="M20.7 452.53 L21.06 452.53 L170.08 452.53" class="st4"/>
		</g>
		<g id="shape15-54" v:mID="15" v:groupContext="shape" transform="translate(425.368,-120.466)">
			<title>Sheet.15</title>
			<path d="M0 452.53 L149.02 452.53" class="st6"/>
		</g>
		<g id="shape16-59" v:mID="16" v:groupContext="shape" transform="translate(409.189,501.124) rotate(180)">
			<title>Sheet.16</title>
			<path d="M0 452.53 L182.25 452.53" class="st3"/>
		</g>
		<g id="shape17-62" v:mID="17" v:groupContext="shape" transform="translate(583.074,501.124) rotate(180)">
			<title>Sheet.17</title>
			<path d="M0 452.53 L182.25 452.53" class="st3"/>
		</g>
		<g id="shape19-65" v:mID="19" v:groupContext="shape" transform="translate(250.151,564.429) rotate(-127.405)">
			<title>Sheet.19</title>
			<path d="M20.7 452.53 L21.06 452.53 L160 452.53" class="st4"/>
		</g>
		<g id="shape21-70" v:mID="21" v:groupContext="shape" transform="translate(131.78,409.635) rotate(-127.405)">
			<title>Sheet.21</title>
			<path d="M0 452.53 L87.39 452.53" class="st6"/>
		</g>
		<g id="shape23-75" v:mID="23" v:groupContext="shape" transform="translate(730.368,324.281) rotate(127.532)">
			<title>Sheet.23</title>
			<path d="M20.7 452.53 L21.06 452.53 L100.57 452.53" class="st4"/>
		</g>
		<g id="shape24-80" v:mID="24" v:groupContext="shape" transform="translate(650.554,433.017) rotate(126.794)">
			<title>Sheet.24</title>
			<path d="M0 452.53 L104.6 452.53" class="st6"/>
		</g>
		<g id="shape25-85" v:mID="25" v:groupContext="shape" transform="translate(-58.9851,-296.595) rotate(-40.2877)">
			<title>Sheet.25</title>
			<path d="M0 452.53 L42.96 452.53" class="st3"/>
		</g>
		<g id="shape26-88" v:mID="26" v:groupContext="shape" transform="translate(-30.8959,-296.595) rotate(-40.2877)">
			<title>Sheet.26</title>
			<path d="M0 452.53 L42.96 452.53" class="st3"/>
		</g>
		<g id="shape27-91" v:mID="27" v:groupContext="shape" transform="translate(-0.131486,-296.595) rotate(-40.2877)">
			<title>Sheet.27</title>
			<path d="M0 452.53 L42.96 452.53" class="st3"/>
		</g>
		<g id="shape28-94" v:mID="28" v:groupContext="shape" transform="translate(30.6329,-296.595) rotate(-40.2877)">
			<title>Sheet.28</title>
			<path d="M0 452.53 L42.96 452.53" class="st3"/>
		</g>
		<g id="shape29-97" v:mID="29" v:groupContext="shape" transform="translate(61.3973,-296.595) rotate(-40.2877)">
			<title>Sheet.29</title>
			<path d="M0 452.53 L42.96 452.53" class="st3"/>
		</g>
		<g id="shape30-100" v:mID="30" v:groupContext="shape" transform="translate(88.8177,-296.595) rotate(-40.2877)">
			<title>Sheet.30</title>
			<path d="M0 452.53 L42.96 452.53" class="st3"/>
		</g>
		<g id="shape31-103" v:mID="31" v:groupContext="shape" transform="translate(116.907,-296.595) rotate(-40.2877)">
			<title>Sheet.31</title>
			<path d="M0 452.53 L42.96 452.53" class="st3"/>
		</g>
		<g id="shape32-106" v:mID="32" v:groupContext="shape" transform="translate(147.671,-296.595) rotate(-40.2877)">
			<title>Sheet.32</title>
			<path d="M0 452.53 L42.96 452.53" class="st3"/>
		</g>
		<g id="shape33-109" v:mID="33" v:groupContext="shape" transform="translate(178.436,-296.595) rotate(-40.2877)">
			<title>Sheet.33</title>
			<path d="M0 452.53 L42.96 452.53" class="st3"/>
		</g>
		<g id="shape34-112" v:mID="34" v:groupContext="shape" transform="translate(209.2,-296.595) rotate(-40.2877)">
			<title>Sheet.34</title>
			<path d="M0 452.53 L42.96 452.53" class="st3"/>
		</g>
		<g id="shape35-115" v:mID="35" v:groupContext="shape" transform="translate(241.971,-297.162) rotate(-40.2877)">
			<title>Sheet.35</title>
			<path d="M0 452.53 L42.96 452.53" class="st3"/>
		</g>
		<g id="shape36-118" v:mID="36" v:groupContext="shape" transform="translate(270.06,-297.162) rotate(-40.2877)">
			<title>Sheet.36</title>
			<path d="M0 452.53 L42.96 452.53" class="st3"/>
		</g>
		<g id="shape40-121" v:mID="40" v:groupContext="shape" transform="translate(855.214,47.7146) rotate(89.7448)">
			<title>Sheet.40</title>
			<path d="M0 452.53 L254.55 452.53" class="st7"/>
		</g>
		<g id="shape44-124" v:mID="44" v:groupContext="shape" transform="translate(567.172,-296.852) rotate(26.7028)">
			<title>Sheet.44</title>
			<path d="M0 436.09 C9.75 461.11 22.41 454.74 35.53 436.09" class="st3"/>
		</g>
		<g id="shape45-127" v:mID="45" v:groupContext="shape" transform="translate(131.636,-257.663)">
			<title>Sheet.45</title>
			<desc>Tcosθ</desc>
			<v:textBlock v:margins="rect(4,4,4,4)" v:tabSpace="42.5197"/>
			<v:textRect cx="76" cy="442.527" width="152.01" height="20"/>
			<rect x="0" y="432.527" width="152" height="20" class="st10"/>
			<text x="32.89" y="453.33" class="st11" v:langID="16393"><v:paragraph v:horizAlign="1"/><v:tabList/>Tcos<tspan
						class="st12" v:langID="1032">θ</tspan></text>		</g>
		<g id="shape47-131" v:mID="47" v:groupContext="shape" transform="translate(162.848,-191.333)">
			<title>Sheet.47</title>
			<desc>θ</desc>
			<v:textBlock v:margins="rect(4,4,4,4)" v:tabSpace="42.5197"/>
			<v:textRect cx="76" cy="442.527" width="152.01" height="20"/>
			<rect x="0" y="432.527" width="152" height="20" class="st10"/>
			<text x="66.43" y="453.33" class="st13" v:langID="1032"><v:paragraph v:horizAlign="1"/><v:tabList/>θ</text>		</g>
		<g id="shape49-134" v:mID="49" v:groupContext="shape" transform="translate(292.675,-299.025)">
			<title>Sheet.49</title>
			<desc>θ</desc>
			<v:textBlock v:margins="rect(4,4,4,4)" v:tabSpace="42.5197"/>
			<v:textRect cx="76" cy="442.527" width="152.01" height="20"/>
			<rect x="0" y="432.527" width="152" height="20" class="st10"/>
			<text x="66.19" y="453.33" class="st11" v:langID="1032"><v:paragraph v:horizAlign="1"/><v:tabList/>θ</text>		</g>
		<g id="shape50-137" v:mID="50" v:groupContext="shape" transform="translate(331.573,-110.466)">
			<title>Sheet.50</title>
			<desc>x</desc>
			<v:textBlock v:margins="rect(4,4,4,4)" v:tabSpace="42.5197"/>
			<v:textRect cx="76" cy="442.527" width="152.01" height="20"/>
			<rect x="0" y="432.527" width="152" height="20" class="st10"/>
			<text x="67.73" y="453.33" class="st14" v:langID="16393"><v:paragraph v:horizAlign="1"/><v:tabList/>x</text>		</g>
		<g id="shape51-140" v:mID="51" v:groupContext="shape" transform="translate(136.77,-29.6003)">
			<title>Sheet.51</title>
			<desc>mg</desc>
			<v:textBlock v:margins="rect(4,4,4,4)" v:tabSpace="42.5197"/>
			<v:textRect cx="76" cy="442.527" width="152.01" height="20"/>
			<rect x="0" y="432.527" width="152" height="20" class="st10"/>
			<text x="52.03" y="453.33" class="st14" v:langID="16393"><v:paragraph v:horizAlign="1"/><v:tabList/>mg</text>		</g>
		<g id="shape52-143" v:mID="52" v:groupContext="shape" transform="translate(18.25,-138.813)">
			<title>Sheet.52</title>
			<desc>F0</desc>
			<v:textBlock v:margins="rect(4,4,4,4)" v:tabSpace="42.5197"/>
			<v:textRect cx="76" cy="442.527" width="152.01" height="20"/>
			<rect x="0" y="432.527" width="152" height="20" class="st10"/>
			<text x="61.81" y="453.33" class="st14" v:langID="16393"><v:paragraph v:horizAlign="1"/><v:tabList/>F<tspan
						dy="-0.284em" class="st15" v:baseFontSize="36">0</tspan></text>		</g>
		<g id="shape54-147" v:mID="54" v:groupContext="shape" transform="translate(198.313,-193.6)">
			<title>Sheet.54</title>
			<desc>T</desc>
			<v:textBlock v:margins="rect(4,4,4,4)" v:tabSpace="42.5197"/>
			<v:textRect cx="76" cy="442.527" width="152.01" height="20"/>
			<rect x="0" y="432.527" width="152" height="20" class="st10"/>
			<text x="67.09" y="453.33" class="st14" v:langID="16393"><v:paragraph v:horizAlign="1"/><v:tabList/>T</text>		</g>
		<g id="shape55-150" v:mID="55" v:groupContext="shape" transform="translate(226.943,-160.403)">
			<title>Sheet.55</title>
			<desc>Tsinθ</desc>
			<v:textBlock v:margins="rect(4,4,4,4)" v:tabSpace="42.5197"/>
			<v:textRect cx="76" cy="442.527" width="152.01" height="20"/>
			<rect x="0" y="432.527" width="152" height="20" class="st10"/>
			<text x="36.27" y="453.33" class="st14" v:langID="16393"><v:paragraph v:horizAlign="1"/><v:tabList/>Tsin<tspan
						class="st16" v:langID="1032">θ</tspan></text>		</g>
		<g id="shape57-154" v:mID="57" v:groupContext="shape" transform="translate(220.093,-297.915)">
			<title>Sheet.57</title>
			<desc>l</desc>
			<v:textBlock v:margins="rect(4,4,4,4)" v:tabSpace="42.5197"/>
			<v:textRect cx="76" cy="442.527" width="152.01" height="20"/>
			<rect x="0" y="432.527" width="152" height="20" class="st10"/>
			<text x="73.05" y="453.33" class="st17" v:langID="16393"><v:paragraph v:horizAlign="1"/><v:tabList/>l</text>		</g>
		<g id="shape58-157" v:mID="58" v:groupContext="shape" transform="translate(425.368,-295.931)">
			<title>Sheet.58</title>
			<desc>l</desc>
			<v:textBlock v:margins="rect(4,4,4,4)" v:tabSpace="42.5197"/>
			<v:textRect cx="76" cy="442.527" width="152.01" height="20"/>
			<rect x="0" y="432.527" width="152" height="20" class="st10"/>
			<text x="73.05" y="453.33" class="st17" v:langID="16393"><v:paragraph v:horizAlign="1"/><v:tabList/>l</text>		</g>
	</g>
</svg>
