<?xml version="1.0" encoding="UTF-8" standalone="no"?>
<!DOCTYPE svg PUBLIC "-//W3C//DTD SVG 1.1//EN" "http://www.w3.org/Graphics/SVG/1.1/DTD/svg11.dtd">
<!-- Generated by Microsoft Visio, SVG Export Oct03JE05-16.svg Page-1 -->
<svg xmlns="http://www.w3.org/2000/svg" xmlns:xlink="http://www.w3.org/1999/xlink" xmlns:ev="http://www.w3.org/2001/xml-events"
		xmlns:v="http://schemas.microsoft.com/visio/2003/SVGExtensions/" width="9.76683in" height="3.88812in"
		viewBox="0 0 703.212 279.945" xml:space="preserve" color-interpolation-filters="sRGB" class="st12">
	<v:documentProperties v:langID="1033" v:metric="true" v:viewMarkup="false">
		<v:userDefs>
			<v:ud v:nameU="msvSubprocessMaster" v:prompt="" v:val="VT4(Rectangle)"/>
			<v:ud v:nameU="msvNoAutoConnect" v:val="VT0(1):26"/>
		</v:userDefs>
	</v:documentProperties>

	<style type="text/css">
	<![CDATA[
		.st1 {fill:none;stroke:none;stroke-linecap:round;stroke-linejoin:round;stroke-width:0.75}
		.st2 {fill:#bdedff;font-family:Arial Rounded MT Bold;font-size:7.08334em}
		.st3 {fill:none;stroke:#000000;stroke-linecap:round;stroke-linejoin:round;stroke-width:3}
		.st4 {stroke:#000000;stroke-linecap:round;stroke-linejoin:round;stroke-width:3}
		.st5 {stroke:#000000;stroke-dasharray:3,6;stroke-linecap:round;stroke-linejoin:round;stroke-width:3}
		.st6 {fill:#000000;stroke:#000000;stroke-linecap:round;stroke-linejoin:round;stroke-width:0.24}
		.st7 {visibility:visible}
		.st8 {fill:#5b9bd5;fill-opacity:0.22;filter:url(#filter_2);stroke:#5b9bd5;stroke-opacity:0.22}
		.st9 {fill:#000000;stroke:#c7c8c8;stroke-width:0.25}
		.st10 {fill:none;stroke:none;stroke-width:0.25}
		.st11 {fill:#000000;font-family:Calibri;font-size:3em;font-weight:bold}
		.st12 {fill:none;fill-rule:evenodd;font-size:12px;overflow:visible;stroke-linecap:square;stroke-miterlimit:3}
	]]>
	</style>

	<defs id="Filters">
		<filter id="filter_2">
			<feGaussianBlur stdDeviation="2"/>
		</filter>
	</defs>
	<g v:mID="0" v:index="1" v:groupContext="foregroundPage">
		<v:userDefs>
			<v:ud v:nameU="msvThemeOrder" v:val="VT0(0):26"/>
		</v:userDefs>
		<title>Page-1</title>
		<v:pageProperties v:drawingScale="0.0393701" v:pageScale="0.0393701" v:drawingUnits="24" v:shadowOffsetX="8.50394"
				v:shadowOffsetY="-8.50394"/>
		<v:layer v:name="Connector" v:index="0"/>
		<g id="shape1-1" v:mID="1" v:groupContext="shape" transform="translate(18.375,-87.7131)">
			<title>Sheet.1</title>
			<desc>ExamSIDE.com</desc>
			<v:textBlock v:margins="rect(4,4,4,4)" v:tabSpace="42.5197"/>
			<v:textRect cx="333.231" cy="236.099" width="666.47" height="87.6924"/>
			<rect x="0" y="192.253" width="666.462" height="87.6924" class="st1"/>
			<text x="16.6" y="261.6" class="st2" v:langID="16393"><v:paragraph v:horizAlign="1"/><v:tabList/>ExamSIDE.com</text>		</g>
		<g id="shape2-4" v:mID="2" v:groupContext="shape" transform="translate(117.588,-19.5)">
			<title>Circle</title>
			<v:userDefs>
				<v:ud v:nameU="visVersion" v:val="VT0(15):26"/>
			</v:userDefs>
			<path d="M0 209.08 A70.8661 70.8661 0 0 1 141.73 209.08 A70.8661 70.8661 0 1 1 0 209.08 Z" class="st3"/>
		</g>
		<g id="shape3-6" v:mID="3" v:groupContext="shape" transform="translate(287.666,-19.5)">
			<title>Circle.3</title>
			<v:userDefs>
				<v:ud v:nameU="visVersion" v:val="VT0(15):26"/>
			</v:userDefs>
			<path d="M0 209.08 A70.8661 70.8661 0 0 1 141.73 209.08 A70.8661 70.8661 0 1 1 0 209.08 Z" class="st3"/>
		</g>
		<g id="shape4-8" v:mID="4" v:groupContext="shape" transform="translate(457.745,-19.5)">
			<title>Circle.4</title>
			<v:userDefs>
				<v:ud v:nameU="visVersion" v:val="VT0(15):26"/>
			</v:userDefs>
			<path d="M0 209.08 A70.8661 70.8661 0 0 1 141.73 209.08 A70.8661 70.8661 0 1 1 0 209.08 Z" class="st3"/>
		</g>
		<g id="shape5-10" v:mID="5" v:groupContext="shape" transform="translate(-91.4911,118.713) rotate(-90)">
			<title>Sheet.5</title>
			<path d="M0 279.94 L99.21 279.94" class="st4"/>
		</g>
		<g id="shape6-13" v:mID="6" v:groupContext="shape" transform="translate(78.5876,118.713) rotate(-90)">
			<title>Sheet.6</title>
			<path d="M0 279.94 L99.21 279.94" class="st4"/>
		</g>
		<g id="shape7-16" v:mID="7" v:groupContext="shape" transform="translate(248.666,118.713) rotate(-90)">
			<title>Sheet.7</title>
			<path d="M0 279.94 L99.21 279.94" class="st4"/>
		</g>
		<g id="shape9-19" v:mID="9" v:groupContext="shape" transform="translate(429.399,469.524) rotate(180)">
			<title>Sheet.9</title>
			<path d="M0 279.94 L141.73 279.94" class="st4"/>
		</g>
		<g id="shape10-22" v:mID="10" v:groupContext="shape" transform="translate(259.32,469.524) rotate(180)">
			<title>Sheet.10</title>
			<path d="M0 279.94 L141.73 279.94" class="st5"/>
		</g>
		<g id="shape17-25" v:mID="17" v:groupContext="shape" transform="translate(256.794,484.293) rotate(-179.802)">
			<title>Sheet.17</title>
			<path d="M0 279.94 L138.72 279.94" class="st5"/>
		</g>
		<g id="shape18-28" v:mID="18" v:groupContext="shape" transform="translate(256.132,496.439) rotate(179.565)">
			<title>Sheet.18</title>
			<path d="M0 279.94 L130.69 279.94" class="st5"/>
		</g>
		<g id="shape19-31" v:mID="19" v:groupContext="shape" transform="translate(244.862,509.099) rotate(-179.515)">
			<title>Sheet.19</title>
			<path d="M0 279.94 L118.22 279.94" class="st5"/>
		</g>
		<g id="shape20-34" v:mID="20" v:groupContext="shape" transform="translate(238.57,519.64) rotate(180)">
			<title>Sheet.20</title>
			<path d="M0 279.94 L100.23 279.94" class="st5"/>
		</g>
		<g id="shape21-37" v:mID="21" v:groupContext="shape" transform="translate(222.038,530.381) rotate(-179.447)">
			<title>Sheet.21</title>
			<path d="M0 279.94 L73.75 279.94" class="st5"/>
		</g>
		<g id="shape22-40" v:mID="22" v:groupContext="shape" transform="translate(257.434,455.651) rotate(-179.943)">
			<title>Sheet.22</title>
			<path d="M0 279.94 L138.49 279.94" class="st5"/>
		</g>
		<g id="shape25-43" v:mID="25" v:groupContext="shape" transform="translate(121.307,-117.064) rotate(-0.307742)">
			<title>Sheet.25</title>
			<path d="M0 279.94 L131 279.94" class="st5"/>
		</g>
		<g id="shape26-46" v:mID="26" v:groupContext="shape" transform="translate(124.795,-127.301) rotate(-0.65283)">
			<title>Sheet.26</title>
			<path d="M0 279.94 L120.09 279.94" class="st5"/>
		</g>
		<g id="shape27-49" v:mID="27" v:groupContext="shape" transform="translate(138.337,-140.483)">
			<title>Sheet.27</title>
			<path d="M0 279.94 L100.23 279.94" class="st5"/>
		</g>
		<g id="shape28-52" v:mID="28" v:groupContext="shape" transform="translate(160.805,-152.462) rotate(1.30345)">
			<title>Sheet.28</title>
			<path d="M0 279.94 L70.84 279.94" class="st5"/>
		</g>
		<g id="shape29-55" v:mID="29" v:groupContext="shape" transform="translate(292.733,-80.3362) rotate(0.728247)">
			<title>Sheet.29</title>
			<path d="M0 279.94 L138.33 279.94" class="st5"/>
		</g>
		<g id="shape30-58" v:mID="30" v:groupContext="shape" transform="translate(293.766,-68.2124) rotate(0.596745)">
			<title>Sheet.30</title>
			<path d="M0 279.94 L134.92 279.94" class="st5"/>
		</g>
		<g id="shape31-61" v:mID="31" v:groupContext="shape" transform="translate(299.215,-55.6638) rotate(0.5068)">
			<title>Sheet.31</title>
			<path d="M0 279.94 L122.97 279.94" class="st5"/>
		</g>
		<g id="shape32-64" v:mID="32" v:groupContext="shape" transform="translate(308.416,-40.2496)">
			<title>Sheet.32</title>
			<path d="M0 279.94 L100.23 279.94" class="st5"/>
		</g>
		<g id="shape34-67" v:mID="34" v:groupContext="shape" transform="translate(316.752,-30.5059) rotate(-0.77961)">
			<title>Sheet.34</title>
			<path d="M0 279.94 L77.56 279.94" class="st5"/>
		</g>
		<g id="shape35-70" v:mID="35" v:groupContext="shape" transform="translate(181.367,-83.2795)">
			<title>Circle.35</title>
			<v:userDefs>
				<v:ud v:nameU="visVersion" v:val="VT0(15):26"/>
			</v:userDefs>
			<path d="M0 272.86 A7.08661 7.08661 0 0 1 14.17 272.86 A7.08661 7.08661 0 1 1 0 272.86 Z" class="st6"/>
		</g>
		<g id="shape36-72" v:mID="36" v:groupContext="shape" transform="translate(351.446,-79.878)">
			<title>Circle.36</title>
			<v:userDefs>
				<v:ud v:nameU="visVersion" v:val="VT0(15):26"/>
			</v:userDefs>
			<g id="shadow36-73" v:groupContext="shadow" v:shadowOffsetX="0.345598" v:shadowOffsetY="-1.97279" v:shadowType="1"
					transform="matrix(1,0,0,1,0.345598,1.97279)" class="st7">
				<path d="M0 272.86 A7.08661 7.08661 0 0 1 14.17 272.86 A7.08661 7.08661 0 1 1 0 272.86 Z" class="st8"/>
			</g>
			<path d="M0 272.86 A7.08661 7.08661 0 0 1 14.17 272.86 A7.08661 7.08661 0 1 1 0 272.86 Z" class="st9"/>
		</g>
		<g id="shape37-77" v:mID="37" v:groupContext="shape" transform="translate(521.525,-83.2795)">
			<title>Circle.37</title>
			<v:userDefs>
				<v:ud v:nameU="visVersion" v:val="VT0(15):26"/>
			</v:userDefs>
			<g id="shadow37-78" v:groupContext="shadow" v:shadowOffsetX="0.345598" v:shadowOffsetY="-1.97279" v:shadowType="1"
					transform="matrix(1,0,0,1,0.345598,1.97279)" class="st7">
				<path d="M0 272.86 A7.08661 7.08661 0 0 1 14.17 272.86 A7.08661 7.08661 0 1 1 0 272.86 Z" class="st8"/>
			</g>
			<path d="M0 272.86 A7.08661 7.08661 0 0 1 14.17 272.86 A7.08661 7.08661 0 1 1 0 272.86 Z" class="st9"/>
		</g>
		<g id="shape38-82" v:mID="38" v:groupContext="shape" transform="translate(122.627,-62.9961)">
			<title>Sheet.38</title>
			<desc>C</desc>
			<v:textBlock v:margins="rect(4,4,4,4)" v:tabSpace="42.5197"/>
			<v:textRect cx="76" cy="269.945" width="152" height="20"/>
			<rect x="0" y="259.945" width="152" height="20" class="st10"/>
			<text x="66.47" y="280.75" class="st11" v:langID="16393"><v:paragraph v:horizAlign="1"/><v:tabList/>C</text>		</g>
	</g>
</svg>
