<?xml version="1.0" encoding="UTF-8" standalone="no"?>
<!DOCTYPE svg PUBLIC "-//W3C//DTD SVG 1.1//EN" "http://www.w3.org/Graphics/SVG/1.1/DTD/svg11.dtd">
<!-- Generated by Microsoft Visio, SVG Export Oct07JE03-09.svg Page-1 -->
<svg xmlns="http://www.w3.org/2000/svg" xmlns:xlink="http://www.w3.org/1999/xlink" xmlns:ev="http://www.w3.org/2001/xml-events"
		xmlns:v="http://schemas.microsoft.com/visio/2003/SVGExtensions/" width="9.78767in" height="5.74902in"
		viewBox="0 0 704.712 413.929" xml:space="preserve" color-interpolation-filters="sRGB" class="st10">
	<v:documentProperties v:langID="1033" v:metric="true" v:viewMarkup="false">
		<v:userDefs>
			<v:ud v:nameU="msvSubprocessMaster" v:prompt="" v:val="VT4(Rectangle)"/>
			<v:ud v:nameU="msvNoAutoConnect" v:val="VT0(1):26"/>
		</v:userDefs>
	</v:documentProperties>

	<style type="text/css">
	<![CDATA[
		.st1 {fill:none;stroke:none;stroke-linecap:round;stroke-linejoin:round;stroke-width:2.25}
		.st2 {fill:#bdedff;font-family:Arial Rounded MT Bold;font-size:7.08334em}
		.st3 {fill:none;stroke:#000000;stroke-linecap:round;stroke-linejoin:round;stroke-width:2.25}
		.st4 {stroke:#000000;stroke-linecap:round;stroke-linejoin:round;stroke-width:2.25}
		.st5 {marker-end:url(#mrkr13-33);stroke:#000000;stroke-linecap:round;stroke-linejoin:round;stroke-width:2.25}
		.st6 {fill:#000000;fill-opacity:1;stroke:#000000;stroke-opacity:1;stroke-width:0.47169811320755}
		.st7 {marker-start:url(#mrkr13-39);stroke:#000000;stroke-linecap:round;stroke-linejoin:round;stroke-width:2.25}
		.st8 {fill:none;stroke:none;stroke-width:4.5}
		.st9 {fill:#000000;font-family:Calibri;font-size:3em;font-weight:bold}
		.st10 {fill:none;fill-rule:evenodd;font-size:12px;overflow:visible;stroke-linecap:square;stroke-miterlimit:3}
	]]>
	</style>

	<defs id="Markers">
		<g id="lend13">
			<path d="M 3 1 L 0 0 L 3 -1 L 3 1 " style="stroke:none"/>
		</g>
		<marker id="mrkr13-33" class="st6" v:arrowType="13" v:arrowSize="2" v:setback="6.36" refX="-6.36" orient="auto"
				markerUnits="strokeWidth" overflow="visible">
			<use xlink:href="#lend13" transform="scale(-2.12,-2.12) "/>
		</marker>
		<marker id="mrkr13-39" class="st6" v:arrowType="13" v:arrowSize="2" v:setback="6.2" refX="6.2" orient="auto"
				markerUnits="strokeWidth" overflow="visible">
			<use xlink:href="#lend13" transform="scale(2.12) "/>
		</marker>
	</defs>
	<g v:mID="0" v:index="1" v:groupContext="foregroundPage">
		<v:userDefs>
			<v:ud v:nameU="msvThemeOrder" v:val="VT0(0):26"/>
		</v:userDefs>
		<title>Page-1</title>
		<v:pageProperties v:drawingScale="0.0393701" v:pageScale="0.0393701" v:drawingUnits="24" v:shadowOffsetX="8.50394"
				v:shadowOffsetY="-8.50394"/>
		<v:layer v:name="Connector" v:index="0"/>
		<g id="shape1-1" v:mID="1" v:groupContext="shape" transform="translate(19.125,-132.636)">
			<title>Sheet.1</title>
			<desc>ExamSIDE.com</desc>
			<v:textBlock v:margins="rect(4,4,4,4)" v:tabSpace="42.5197"/>
			<v:textRect cx="333.231" cy="370.083" width="666.47" height="87.6924"/>
			<rect x="0" y="326.237" width="666.462" height="87.6924" class="st1"/>
			<text x="16.6" y="395.58" class="st2" v:langID="16393"><v:paragraph v:horizAlign="1"/><v:tabList/>ExamSIDE.com</text>		</g>
		<g id="shape2-4" v:mID="2" v:groupContext="shape" transform="translate(175.031,-126.431)">
			<title>Rectangle</title>
			<v:userDefs>
				<v:ud v:nameU="visVersion" v:val="VT0(15):26"/>
			</v:userDefs>
			<rect x="0" y="254.48" width="396.85" height="159.449" class="st3"/>
		</g>
		<g id="shape3-6" v:mID="3" v:groupContext="shape" transform="translate(146.684,-228.124)">
			<title>Ellipse</title>
			<v:userDefs>
				<v:ud v:nameU="visVersion" v:val="VT0(15):26"/>
			</v:userDefs>
			<path d="M0 337.89 A226.772 76.0394 0 0 1 453.54 337.89 A226.772 76.0394 0 0 1 0 337.89 Z" class="st3"/>
		</g>
		<g id="shape5-8" v:mID="5" v:groupContext="shape" transform="translate(353.613,-228.489)">
			<title>Sheet.5</title>
			<path d="M0 413.93 L39.69 413.93" class="st4"/>
		</g>
		<g id="shape6-11" v:mID="6" v:groupContext="shape" transform="translate(147.818,-33.1002)">
			<title>Ellipse.6</title>
			<v:userDefs>
				<v:ud v:nameU="visVersion" v:val="VT0(15):26"/>
			</v:userDefs>
			<path d="M0 337.89 A226.772 76.0394 0 0 1 453.54 337.89 A226.772 76.0394 0 0 1 0 337.89 Z" class="st3"/>
		</g>
		<g id="shape18-13" v:mID="18" v:groupContext="shape" transform="translate(211.318,-243.069) rotate(12.0948)">
			<title>Sheet.18</title>
			<path d="M0 397.04 C7.29 401.91 11.69 403.11 16.37 404.24 C71.42 417.5 163.39 419.59 250.9 397.04" class="st4"/>
		</g>
		<g id="shape21-16" v:mID="21" v:groupContext="shape" transform="translate(614.723,586.753) rotate(174.059)">
			<title>Sheet.21</title>
			<path d="M0 413.93 C14.76 410.32 33.99 406.58 55.27 404.81 C107.06 400.5 171.01 407.85 219.44 413.93" class="st4"/>
		</g>
		<g id="shape25-19" v:mID="25" v:groupContext="shape" transform="translate(307.247,-136.959) rotate(-39.5352)">
			<title>Sheet.25</title>
			<path d="M0 407.05 C3.31 407.03 4.85 407.51 6.55 407.98 C28.17 413.99 75.24 418.06 89.86 407.05" class="st4"/>
		</g>
		<g id="shape26-22" v:mID="26" v:groupContext="shape" transform="translate(437.908,607.256) rotate(168.91)">
			<title>Sheet.26</title>
			<path d="M0 396.77 C40.25 405.95 78.55 413.44 115.97 413.93 C161.11 414.52 204.96 404.91 242.1 396.77" class="st4"/>
		</g>
		<g id="shape27-25" v:mID="27" v:groupContext="shape" transform="translate(431.222,-189.498) rotate(10.2929)">
			<title>Sheet.27</title>
			<path d="M0 413.93 C103.85 393.99 208.26 386.23 290.25 413.93" class="st4"/>
		</g>
		<g id="shape30-28" v:mID="30" v:groupContext="shape" transform="translate(39.656,559.595) rotate(-160.398)">
			<title>Sheet.30</title>
			<path d="M0 413.93 L22.82 413.93" class="st5"/>
		</g>
		<g id="shape34-34" v:mID="34" v:groupContext="shape" transform="translate(-15.9365,-126.057) rotate(-23.1382)">
			<title>Sheet.34</title>
			<path d="M13.95 413.93 L14.31 413.93 L20.51 413.93" class="st7"/>
		</g>
		<g id="shape36-40" v:mID="36" v:groupContext="shape" transform="translate(848.455,488.281) rotate(144.565)">
			<title>Sheet.36</title>
			<path d="M13.95 413.93 L14.31 413.93 L16.07 413.93" class="st7"/>
		</g>
		<g id="shape38-45" v:mID="38" v:groupContext="shape" transform="translate(726.669,-144.07) rotate(19.7206)">
			<title>Sheet.38</title>
			<path d="M0 413.93 L4.83 413.93" class="st5"/>
		</g>
		<g id="shape39-50" v:mID="39" v:groupContext="shape" transform="translate(375.249,-185.131) rotate(0.876093)">
			<title>Sheet.39</title>
			<path d="M13.95 413.93 L14.31 413.93 L20.64 413.93" class="st7"/>
		</g>
		<g id="shape41-55" v:mID="41" v:groupContext="shape" transform="translate(375.939,-196.724) rotate(0.876093)">
			<title>Sheet.41</title>
			<path d="M13.95 413.93 L14.31 413.93 L20.64 413.93" class="st7"/>
		</g>
		<g id="shape42-60" v:mID="42" v:groupContext="shape" transform="translate(374.739,-216.822) rotate(0.876093)">
			<title>Sheet.42</title>
			<path d="M13.95 413.93 L14.31 413.93 L20.64 413.93" class="st7"/>
		</g>
		<g id="shape43-65" v:mID="43" v:groupContext="shape" transform="translate(375.429,-228.416) rotate(0.876093)">
			<title>Sheet.43</title>
			<path d="M13.95 413.93 L14.31 413.93 L20.64 413.93" class="st7"/>
		</g>
		<g id="shape44-70" v:mID="44" v:groupContext="shape" transform="translate(372.339,-380.797) rotate(0.876093)">
			<title>Sheet.44</title>
			<path d="M0 413.93 L6.33 413.93" class="st5"/>
		</g>
		<g id="shape45-75" v:mID="45" v:groupContext="shape" transform="translate(367.575,-33.3513) rotate(0.876093)">
			<title>Sheet.45</title>
			<path d="M0 413.93 L6.33 413.93" class="st5"/>
		</g>
		<g id="shape46-80" v:mID="46" v:groupContext="shape" transform="translate(118.338,-196.155)">
			<title>Sheet.46</title>
			<desc>N</desc>
			<v:textBlock v:margins="rect(4,4,4,4)" v:tabSpace="42.5197"/>
			<v:textRect cx="76" cy="403.929" width="152.01" height="20"/>
			<rect x="0" y="393.929" width="152" height="20" class="st8"/>
			<text x="64.14" y="414.73" class="st9" v:langID="16393"><v:paragraph v:horizAlign="1"/><v:tabList/>N</text>		</g>
		<g id="shape47-83" v:mID="47" v:groupContext="shape" transform="translate(472.668,-196.155)">
			<title>Sheet.47</title>
			<desc>S</desc>
			<v:textBlock v:margins="rect(4,4,4,4)" v:tabSpace="42.5197"/>
			<v:textRect cx="76" cy="403.929" width="152.01" height="20"/>
			<rect x="0" y="393.929" width="152" height="20" class="st8"/>
			<text x="67.49" y="414.73" class="st9" v:langID="16393"><v:paragraph v:horizAlign="1"/><v:tabList/>S</text>		</g>
	</g>
</svg>
