<?xml version="1.0" encoding="UTF-8" standalone="no"?>
<!DOCTYPE svg PUBLIC "-//W3C//DTD SVG 1.1//EN" "http://www.w3.org/Graphics/SVG/1.1/DTD/svg11.dtd">
<!-- Generated by Microsoft Visio, SVG Export Oct10JE13-39.svg Page-1 -->
<svg xmlns="http://www.w3.org/2000/svg" xmlns:xlink="http://www.w3.org/1999/xlink" xmlns:ev="http://www.w3.org/2001/xml-events"
		xmlns:v="http://schemas.microsoft.com/visio/2003/SVGExtensions/" width="11.6929in" height="8.26772in"
		viewBox="0 0 841.89 595.276" xml:space="preserve" color-interpolation-filters="sRGB" class="st10">
	<v:documentProperties v:langID="1033" v:metric="true" v:viewMarkup="false">
		<v:userDefs>
			<v:ud v:nameU="msvSubprocessMaster" v:prompt="" v:val="VT4(Rectangle)"/>
			<v:ud v:nameU="msvNoAutoConnect" v:val="VT0(1):26"/>
		</v:userDefs>
	</v:documentProperties>

	<style type="text/css">
	<![CDATA[
		.st1 {fill:none;stroke:none;stroke-linecap:round;stroke-linejoin:round;stroke-width:3}
		.st2 {fill:#bdedff;font-family:Arial Rounded MT Bold;font-size:6.66666em}
		.st3 {stroke:#000000;stroke-dasharray:3,6;stroke-linecap:round;stroke-linejoin:round;stroke-width:3}
		.st4 {stroke:#000000;stroke-linecap:round;stroke-linejoin:round;stroke-width:3}
		.st5 {fill:#000000;font-family:Calibri;font-size:3em;font-style:italic;font-weight:bold}
		.st6 {marker-start:url(#mrkr13-33);stroke:#000000;stroke-linecap:round;stroke-linejoin:round;stroke-width:3}
		.st7 {fill:#000000;fill-opacity:1;stroke:#000000;stroke-opacity:1;stroke-width:0.54347826086957}
		.st8 {marker-end:url(#mrkr13-39);stroke:#000000;stroke-linecap:round;stroke-linejoin:round;stroke-width:3}
		.st9 {fill:none;stroke:none;stroke-width:3}
		.st10 {fill:none;fill-rule:evenodd;font-size:12px;overflow:visible;stroke-linecap:square;stroke-miterlimit:3}
	]]>
	</style>

	<defs id="Markers">
		<g id="lend13">
			<path d="M 3 1 L 0 0 L 3 -1 L 3 1 " style="stroke:none"/>
		</g>
		<marker id="mrkr13-33" class="st7" v:arrowType="13" v:arrowSize="2" v:setback="5.4" refX="5.4" orient="auto"
				markerUnits="strokeWidth" overflow="visible">
			<use xlink:href="#lend13" transform="scale(1.84) "/>
		</marker>
		<marker id="mrkr13-39" class="st7" v:arrowType="13" v:arrowSize="2" v:setback="5.52" refX="-5.52" orient="auto"
				markerUnits="strokeWidth" overflow="visible">
			<use xlink:href="#lend13" transform="scale(-1.84,-1.84) "/>
		</marker>
	</defs>
	<g v:mID="0" v:index="1" v:groupContext="foregroundPage">
		<v:userDefs>
			<v:ud v:nameU="msvThemeOrder" v:val="VT0(0):26"/>
		</v:userDefs>
		<title>Page-1</title>
		<v:pageProperties v:drawingScale="0.0393701" v:pageScale="0.0393701" v:drawingUnits="24" v:shadowOffsetX="8.50394"
				v:shadowOffsetY="-8.50394"/>
		<v:layer v:name="Connector" v:index="0"/>
		<g id="shape1-1" v:mID="1" v:groupContext="shape" transform="translate(134.486,-266.638)">
			<title>Sheet.1</title>
			<desc>ExamSIDE.com</desc>
			<v:textBlock v:margins="rect(4,4,4,4)" v:tabSpace="42.5197"/>
			<v:textRect cx="333.231" cy="551.429" width="666.47" height="87.6924"/>
			<rect x="0" y="507.583" width="666.462" height="87.6924" class="st1"/>
			<text x="35.22" y="575.43" class="st2" v:langID="16393"><v:paragraph v:horizAlign="1"/><v:tabList/>ExamSIDE.com</text>		</g>
		<g id="shape4-4" v:mID="4" v:groupContext="shape" transform="translate(949.728,106.299) rotate(90)">
			<title>Sheet.4</title>
			<path d="M0 595.28 L361.42 595.28" class="st3"/>
		</g>
		<g id="shape5-7" v:mID="5" v:groupContext="shape" transform="translate(354.453,-308.268)">
			<title>Sheet.5</title>
			<path d="M149.74 494.11 L0 595.28 L180.71 595.28" class="st3"/>
		</g>
		<g id="shape6-10" v:mID="6" v:groupContext="shape" transform="translate(1098.56,185.318) rotate(90.0771)">
			<title>Sheet.6</title>
			<path d="M0 595.28 L205.38 595.28" class="st4"/>
		</g>
		<g id="shape7-13" v:mID="7" v:groupContext="shape" transform="translate(233.446,693.171) rotate(-151.777)">
			<title>Sheet.7</title>
			<path d="M0 574.32 C47.64 598.36 111.6 606.16 170.92 574.32" class="st3"/>
		</g>
		<g id="shape8-16" v:mID="8" v:groupContext="shape" transform="translate(-27.3106,459.422) rotate(-108.368)">
			<title>Sheet.8</title>
			<path d="M0 589.92 C28.29 596.9 82.95 597.44 94.32 589.92" class="st4"/>
		</g>
		<g id="shape9-19" v:mID="9" v:groupContext="shape" transform="translate(1109.83,417.313) rotate(104.188)">
			<title>Sheet.9</title>
			<path d="M0 595.28 C44.21 587.56 76.21 584.48 121.2 595.28" class="st4"/>
		</g>
		<g id="shape10-22" v:mID="10" v:groupContext="shape" transform="translate(85.7289,-39.8335) rotate(-27.8991)">
			<title>Sheet.10</title>
			<path d="M0 574.3 C30.69 590.55 56.7 594.85 79.77 595.28 C108.52 595.8 132.72 590.31 169.11 574.3" class="st3"/>
		</g>
		<g id="shape11-25" v:mID="11" v:groupContext="shape" transform="translate(421.776,-382.126)">
			<title>Sheet.11</title>
			<desc>3cm</desc>
			<v:textBlock v:margins="rect(4,4,4,4)" v:tabSpace="42.5197"/>
			<v:textRect cx="128.236" cy="559.567" width="256.48" height="71.4172"/>
			<rect x="0" y="523.858" width="256.472" height="71.4172" class="st1"/>
			<text x="97.24" y="570.37" class="st5" v:langID="16393"><v:paragraph v:horizAlign="1"/><v:tabList/>3cm</text>		</g>
		<g id="shape12-28" v:mID="12" v:groupContext="shape" transform="translate(503.012,983.334) rotate(180)">
			<title>Sheet.12</title>
			<path d="M16.2 595.28 L16.56 595.28 L52.89 595.28" class="st6"/>
		</g>
		<g id="shape13-34" v:mID="13" v:groupContext="shape" transform="translate(407.602,982.107) rotate(180)">
			<title>Sheet.13</title>
			<path d="M0 595.28 L36.59 595.28" class="st8"/>
		</g>
		<g id="shape14-40" v:mID="14" v:groupContext="shape" transform="translate(520.988,-308.268)">
			<title>Sheet.14</title>
			<path d="M-0.71 579.09 L-0.72 578.73 C2.63 559.89 21.78 554.19 37.82 559.2 C49.94 562.98 60.28 572.89 56.69 595.28"
					class="st6"/>
		</g>
		<g id="shape15-45" v:mID="15" v:groupContext="shape" transform="translate(53.2619,-152.25) rotate(-49.3032)">
			<title>Sheet.15</title>
			<path d="M2.07 578.7 L2.11 578.34 C1.8 571.59 1.39 564.92 3.31 562.64 C5.48 560.05 10.66 563.14 15.02 567.27 C27.37 578.96
						 33.21 598.99 48.99 594.76" class="st6"/>
		</g>
		<g id="shape16-50" v:mID="16" v:groupContext="shape" transform="translate(519.334,-274.605)">
			<title>Sheet.16</title>
			<desc>3mm</desc>
			<v:textBlock v:margins="rect(4,4,4,4)" v:tabSpace="42.5197"/>
			<v:textRect cx="63.6294" cy="559.567" width="127.26" height="71.4172"/>
			<rect x="0" y="523.858" width="127.259" height="71.4172" class="st9"/>
			<text x="25.57" y="570.37" class="st5" v:langID="16393"><v:paragraph v:horizAlign="1"/><v:tabList/>3mm</text>		</g>
		<g id="shape17-53" v:mID="17" v:groupContext="shape" transform="translate(257.073,-323.142)">
			<title>Sheet.17</title>
			<desc>R</desc>
			<v:textBlock v:margins="rect(4,4,4,4)" v:tabSpace="42.5197"/>
			<v:textRect cx="128.236" cy="559.567" width="256.48" height="71.4172"/>
			<rect x="0" y="523.858" width="256.472" height="71.4172" class="st9"/>
			<text x="118.1" y="570.37" class="st5" v:langID="16393"><v:paragraph v:horizAlign="1"/><v:tabList/>R</text>		</g>
		<g id="shape18-56" v:mID="18" v:groupContext="shape" transform="translate(242.411,-247.756)">
			<title>Sheet.18</title>
			<desc>R</desc>
			<v:textBlock v:margins="rect(4,4,4,4)" v:tabSpace="42.5197"/>
			<v:textRect cx="128.236" cy="559.567" width="256.48" height="71.4172"/>
			<rect x="0" y="523.858" width="256.472" height="71.4172" class="st9"/>
			<text x="118.1" y="570.37" class="st5" v:langID="16393"><v:paragraph v:horizAlign="1"/><v:tabList/>R</text>		</g>
		<g id="shape19-59" v:mID="19" v:groupContext="shape" transform="translate(352.498,-261.929)">
			<title>Sheet.19</title>
			<desc>_</desc>
			<v:textBlock v:margins="rect(4,4,4,4)" v:tabSpace="42.5197"/>
			<v:textRect cx="47.2569" cy="559.567" width="94.52" height="71.4172"/>
			<rect x="0" y="523.858" width="94.5137" height="71.4172" class="st9"/>
			<text x="38.29" y="570.37" class="st5" v:langID="16393"><v:paragraph v:horizAlign="1"/><v:tabList/>_</text>		</g>
		<g id="shape20-62" v:mID="20" v:groupContext="shape" transform="translate(319.503,-247.787)">
			<title>Sheet.20</title>
			<desc>3mm</desc>
			<v:textBlock v:margins="rect(4,4,4,4)" v:tabSpace="42.5197"/>
			<v:textRect cx="128.236" cy="559.567" width="256.48" height="71.4172"/>
			<rect x="0" y="523.858" width="256.472" height="71.4172" class="st9"/>
			<text x="90.18" y="570.37" class="st5" v:langID="16393"><v:paragraph v:horizAlign="1"/><v:tabList/>3mm</text>		</g>
		<g id="shape21-65" v:mID="21" v:groupContext="shape" transform="translate(304.48,-172.034)">
			<title>Sheet.21</title>
			<desc>R</desc>
			<v:textBlock v:margins="rect(4,4,4,4)" v:tabSpace="42.5197"/>
			<v:textRect cx="128.236" cy="559.567" width="256.48" height="71.4172"/>
			<rect x="0" y="523.858" width="256.472" height="71.4172" class="st9"/>
			<text x="118.1" y="570.37" class="st5" v:langID="16393"><v:paragraph v:horizAlign="1"/><v:tabList/>R</text>		</g>
	</g>
</svg>
